<mxfile host="Electron" agent="Mozilla/5.0 (Windows NT 10.0; Win64; x64) AppleWebKit/537.36 (KHTML, like Gecko) draw.io/26.0.9 Chrome/128.0.6613.186 Electron/32.2.5 Safari/537.36" version="26.0.9">
  <diagram id="C5RBs43oDa-KdzZeNtuy" name="Page-1">
    <mxGraphModel dx="1974" dy="675" grid="1" gridSize="10" guides="1" tooltips="1" connect="1" arrows="1" fold="1" page="1" pageScale="1" pageWidth="827" pageHeight="1169" math="0" shadow="0">
      <root>
        <mxCell id="WIyWlLk6GJQsqaUBKTNV-0" />
        <mxCell id="WIyWlLk6GJQsqaUBKTNV-1" parent="WIyWlLk6GJQsqaUBKTNV-0" />
        <mxCell id="cWRUJiYnSkY0RR1LLJY6-27" value="&lt;b&gt;&lt;font style=&quot;font-size: 14px;&quot;&gt;Diagram Legend&lt;/font&gt;&lt;/b&gt;" style="rounded=0;whiteSpace=wrap;html=1;verticalAlign=top;" vertex="1" parent="WIyWlLk6GJQsqaUBKTNV-1">
          <mxGeometry x="-90" y="210" width="160" height="180" as="geometry" />
        </mxCell>
        <mxCell id="cWRUJiYnSkY0RR1LLJY6-6" style="edgeStyle=orthogonalEdgeStyle;rounded=0;orthogonalLoop=1;jettySize=auto;html=1;exitX=1;exitY=0.5;exitDx=0;exitDy=0;entryX=0;entryY=0.5;entryDx=0;entryDy=0;strokeWidth=3;" edge="1" parent="WIyWlLk6GJQsqaUBKTNV-1" source="cWRUJiYnSkY0RR1LLJY6-4" target="cWRUJiYnSkY0RR1LLJY6-5">
          <mxGeometry relative="1" as="geometry" />
        </mxCell>
        <mxCell id="cWRUJiYnSkY0RR1LLJY6-7" value="referenced by" style="edgeLabel;html=1;align=center;verticalAlign=middle;resizable=0;points=[];" vertex="1" connectable="0" parent="cWRUJiYnSkY0RR1LLJY6-6">
          <mxGeometry x="-0.2115" y="2" relative="1" as="geometry">
            <mxPoint x="4" y="-8" as="offset" />
          </mxGeometry>
        </mxCell>
        <mxCell id="cWRUJiYnSkY0RR1LLJY6-4" value="&lt;b style=&quot;color: rgb(51, 51, 51); text-align: left;&quot;&gt;&lt;font style=&quot;font-size: 14px;&quot;&gt;External Models&lt;/font&gt;&lt;/b&gt;&lt;div style=&quot;color: rgb(51, 51, 51); text-align: left;&quot;&gt;&lt;div&gt;- SPICE Models&lt;/div&gt;&lt;div&gt;- Digital Models (Verilog/VHDL)&lt;/div&gt;&lt;div&gt;- S-Parameter Models&lt;/div&gt;&lt;/div&gt;" style="shape=parallelogram;perimeter=parallelogramPerimeter;whiteSpace=wrap;html=1;fixedSize=1;fillColor=#ffe6cc;strokeColor=#d79b00;" vertex="1" parent="WIyWlLk6GJQsqaUBKTNV-1">
          <mxGeometry x="120" y="120" width="240" height="80" as="geometry" />
        </mxCell>
        <mxCell id="cWRUJiYnSkY0RR1LLJY6-11" style="edgeStyle=orthogonalEdgeStyle;rounded=0;orthogonalLoop=1;jettySize=auto;html=1;exitX=0.5;exitY=1;exitDx=0;exitDy=0;entryX=0.5;entryY=0;entryDx=0;entryDy=0;strokeWidth=3;" edge="1" parent="WIyWlLk6GJQsqaUBKTNV-1" source="cWRUJiYnSkY0RR1LLJY6-5" target="cWRUJiYnSkY0RR1LLJY6-10">
          <mxGeometry relative="1" as="geometry" />
        </mxCell>
        <mxCell id="cWRUJiYnSkY0RR1LLJY6-5" value="&lt;b style=&quot;color: rgb(51, 51, 51); text-align: left;&quot;&gt;&lt;font style=&quot;font-size: 14px;&quot;&gt;Schematic Pages&lt;/font&gt;&lt;/b&gt;" style="shape=parallelogram;perimeter=parallelogramPerimeter;whiteSpace=wrap;html=1;fixedSize=1;fillColor=#ffe6cc;strokeColor=#d79b00;labelPosition=center;verticalLabelPosition=middle;align=center;verticalAlign=top;size=30;" vertex="1" parent="WIyWlLk6GJQsqaUBKTNV-1">
          <mxGeometry x="460" y="105" width="240" height="110" as="geometry" />
        </mxCell>
        <mxCell id="cWRUJiYnSkY0RR1LLJY6-13" style="edgeStyle=orthogonalEdgeStyle;rounded=0;orthogonalLoop=1;jettySize=auto;html=1;exitX=0.5;exitY=1;exitDx=0;exitDy=0;entryX=0.5;entryY=0;entryDx=0;entryDy=0;strokeWidth=3;" edge="1" parent="WIyWlLk6GJQsqaUBKTNV-1" source="cWRUJiYnSkY0RR1LLJY6-10" target="cWRUJiYnSkY0RR1LLJY6-12">
          <mxGeometry relative="1" as="geometry" />
        </mxCell>
        <mxCell id="cWRUJiYnSkY0RR1LLJY6-32" value="generates" style="edgeLabel;html=1;align=center;verticalAlign=middle;resizable=0;points=[];" vertex="1" connectable="0" parent="cWRUJiYnSkY0RR1LLJY6-13">
          <mxGeometry x="-0.2367" y="2" relative="1" as="geometry">
            <mxPoint x="28" as="offset" />
          </mxGeometry>
        </mxCell>
        <mxCell id="cWRUJiYnSkY0RR1LLJY6-10" value="&lt;b&gt;&lt;font style=&quot;font-size: 14px;&quot;&gt;Simulation Run(s)&lt;/font&gt;&lt;/b&gt;&lt;div&gt;(via selected simulator backend)&lt;/div&gt;" style="rounded=0;whiteSpace=wrap;html=1;fillColor=#d5e8d4;strokeColor=#82b366;" vertex="1" parent="WIyWlLk6GJQsqaUBKTNV-1">
          <mxGeometry x="460" y="260" width="240" height="80" as="geometry" />
        </mxCell>
        <mxCell id="cWRUJiYnSkY0RR1LLJY6-16" style="edgeStyle=orthogonalEdgeStyle;rounded=0;orthogonalLoop=1;jettySize=auto;html=1;exitX=0;exitY=0.5;exitDx=0;exitDy=0;entryX=1;entryY=0.5;entryDx=0;entryDy=0;strokeWidth=3;" edge="1" parent="WIyWlLk6GJQsqaUBKTNV-1" source="cWRUJiYnSkY0RR1LLJY6-12" target="cWRUJiYnSkY0RR1LLJY6-15">
          <mxGeometry relative="1" as="geometry" />
        </mxCell>
        <mxCell id="cWRUJiYnSkY0RR1LLJY6-31" value="populates" style="edgeLabel;html=1;align=center;verticalAlign=middle;resizable=0;points=[];" vertex="1" connectable="0" parent="cWRUJiYnSkY0RR1LLJY6-16">
          <mxGeometry x="0.08" y="1" relative="1" as="geometry">
            <mxPoint x="8" y="-11" as="offset" />
          </mxGeometry>
        </mxCell>
        <mxCell id="cWRUJiYnSkY0RR1LLJY6-17" style="edgeStyle=orthogonalEdgeStyle;rounded=0;orthogonalLoop=1;jettySize=auto;html=1;exitX=1;exitY=0.5;exitDx=0;exitDy=0;entryX=1;entryY=0.5;entryDx=0;entryDy=0;strokeWidth=3;" edge="1" parent="WIyWlLk6GJQsqaUBKTNV-1" source="cWRUJiYnSkY0RR1LLJY6-12" target="cWRUJiYnSkY0RR1LLJY6-14">
          <mxGeometry relative="1" as="geometry">
            <Array as="points">
              <mxPoint x="800" y="420" />
              <mxPoint x="800" y="175" />
            </Array>
          </mxGeometry>
        </mxCell>
        <mxCell id="cWRUJiYnSkY0RR1LLJY6-30" value="populates" style="edgeLabel;html=1;align=center;verticalAlign=middle;resizable=0;points=[];" vertex="1" connectable="0" parent="cWRUJiYnSkY0RR1LLJY6-17">
          <mxGeometry x="-0.7084" y="2" relative="1" as="geometry">
            <mxPoint x="-22" y="-8" as="offset" />
          </mxGeometry>
        </mxCell>
        <mxCell id="cWRUJiYnSkY0RR1LLJY6-12" value="&lt;div style=&quot;&quot;&gt;&lt;span style=&quot;background-color: transparent; font-size: 14px;&quot;&gt;&lt;font color=&quot;#333333&quot;&gt;&lt;b&gt;Datasets&lt;/b&gt;&lt;/font&gt;&lt;/span&gt;&lt;/div&gt;&lt;div style=&quot;&quot;&gt;&lt;font color=&quot;#333333&quot;&gt;(output data from simulation)&lt;/font&gt;&lt;/div&gt;" style="shape=parallelogram;perimeter=parallelogramPerimeter;whiteSpace=wrap;html=1;fixedSize=1;fillColor=#dae8fc;strokeColor=#6c8ebf;align=center;" vertex="1" parent="WIyWlLk6GJQsqaUBKTNV-1">
          <mxGeometry x="460" y="380" width="240" height="80" as="geometry" />
        </mxCell>
        <mxCell id="cWRUJiYnSkY0RR1LLJY6-14" value="&lt;div style=&quot;&quot;&gt;&lt;font style=&quot;font-size: 14px;&quot; color=&quot;#333333&quot;&gt;&lt;b&gt;Diagrams&lt;/b&gt;&lt;/font&gt;&lt;/div&gt;&lt;div style=&quot;&quot;&gt;&lt;font color=&quot;#333333&quot;&gt;(on schematic pages)&lt;/font&gt;&lt;/div&gt;" style="shape=parallelogram;perimeter=parallelogramPerimeter;whiteSpace=wrap;html=1;fixedSize=1;fillColor=#dae8fc;strokeColor=#6c8ebf;align=center;size=15;" vertex="1" parent="WIyWlLk6GJQsqaUBKTNV-1">
          <mxGeometry x="495" y="150" width="165" height="50" as="geometry" />
        </mxCell>
        <mxCell id="cWRUJiYnSkY0RR1LLJY6-15" value="&lt;div style=&quot;&quot;&gt;&lt;font color=&quot;#333333&quot;&gt;&lt;span style=&quot;font-size: 14px;&quot;&gt;&lt;b&gt;Diagrams on Data Display Pages&lt;/b&gt;&lt;/span&gt;&lt;/font&gt;&lt;/div&gt;" style="shape=parallelogram;perimeter=parallelogramPerimeter;whiteSpace=wrap;html=1;fixedSize=1;fillColor=#dae8fc;strokeColor=#6c8ebf;align=center;" vertex="1" parent="WIyWlLk6GJQsqaUBKTNV-1">
          <mxGeometry x="100" y="380" width="260" height="80" as="geometry" />
        </mxCell>
        <mxCell id="cWRUJiYnSkY0RR1LLJY6-22" value="" style="group" vertex="1" connectable="0" parent="WIyWlLk6GJQsqaUBKTNV-1">
          <mxGeometry x="210" y="260" width="250" height="80" as="geometry" />
        </mxCell>
        <mxCell id="cWRUJiYnSkY0RR1LLJY6-19" value="This part of the process happens&lt;div&gt;&lt;span style=&quot;background-color: transparent; color: light-dark(rgb(51, 51, 51), rgb(193, 193, 193));&quot;&gt;&lt;br&gt;&lt;/span&gt;&lt;/div&gt;&lt;div&gt;&lt;span style=&quot;background-color: transparent; color: light-dark(rgb(51, 51, 51), rgb(193, 193, 193));&quot;&gt;&amp;nbsp;when you click the&amp;nbsp; &amp;nbsp; &amp;nbsp; &amp;nbsp; &amp;nbsp; &amp;nbsp;button.&lt;/span&gt;&lt;/div&gt;" style="shape=callout;whiteSpace=wrap;html=1;perimeter=calloutPerimeter;fillColor=#f5f5f5;fontColor=#333333;strokeColor=#666666;direction=north;size=30;position=0.33;fontSize=14;fontStyle=2" vertex="1" parent="cWRUJiYnSkY0RR1LLJY6-22">
          <mxGeometry width="250" height="80" as="geometry" />
        </mxCell>
        <mxCell id="cWRUJiYnSkY0RR1LLJY6-18" value="" style="shape=image;verticalLabelPosition=bottom;labelBackgroundColor=default;verticalAlign=top;aspect=fixed;imageAspect=0;editableCssRules=.*;image=data:image/svg+xml,PHN2ZyB4bWxuczp4bGluaz0iaHR0cDovL3d3dy53My5vcmcvMTk5OS94bGluayIgeG1sbnM9Imh0dHA6Ly93d3cudzMub3JnLzIwMDAvc3ZnIiBoZWlnaHQ9IjEyOCIgd2lkdGg9IjEyOCIgdmlld0JveD0iMCAwIDEyOCAxMjgiPjxkZWZzPjxsaW5lYXJHcmFkaWVudCBpZD0iYiI+PHN0b3Agc3RvcC1jb2xvcj0iI2ZmZiIgb2Zmc2V0PSIwIi8+PHN0b3Agc3RvcC1vcGFjaXR5PSIwIiBzdG9wLWNvbG9yPSIjZmZmIiBvZmZzZXQ9IjEiLz48L2xpbmVhckdyYWRpZW50PjxsaW5lYXJHcmFkaWVudCBpZD0iYSI+PHN0b3Agc3RvcC1jb2xvcj0iI2ZmZiIgb2Zmc2V0PSIwIi8+PHN0b3Agc3RvcC1vcGFjaXR5PSIuNTA0IiBzdG9wLWNvbG9yPSIjZmZmIiBvZmZzZXQ9Ii41Ii8+PHN0b3Agc3RvcC1jb2xvcj0iI2ZmZiIgb2Zmc2V0PSIxIi8+PC9saW5lYXJHcmFkaWVudD48bGluZWFyR3JhZGllbnQgaWQ9ImMiPjxzdG9wIG9mZnNldD0iMCIvPjxzdG9wIHN0b3Atb3BhY2l0eT0iMCIgb2Zmc2V0PSIxIi8+PC9saW5lYXJHcmFkaWVudD48bGluZWFyR3JhZGllbnQgaWQ9ImUiPjxzdG9wIHN0b3AtY29sb3I9IiM5ZmMxZjIiIG9mZnNldD0iMCIvPjxzdG9wIHN0b3AtY29sb3I9IiM1ODdlYjUiIG9mZnNldD0iLjUiLz48c3RvcCBzdG9wLWNvbG9yPSIjMGMyYTU4IiBvZmZzZXQ9IjEiLz48L2xpbmVhckdyYWRpZW50PjxsaW5lYXJHcmFkaWVudCBncmFkaWVudFVuaXRzPSJ1c2VyU3BhY2VPblVzZSIgeTI9IjIxLjcyOSIgeTE9IjExLjM2MiIgeDI9IjE4LjI1MiIgeDE9IjQzLjcxNCIgaWQ9InUiIHhsaW5rOmhyZWY9IiNhIi8+PGxpbmVhckdyYWRpZW50IGdyYWRpZW50VW5pdHM9InVzZXJTcGFjZU9uVXNlIiB5Mj0iMjIuNjU4IiB5MT0iMTcuNzk3IiB4Mj0iMzguNjI4IiB4MT0iNTIuNzIyIiBpZD0idyIgeGxpbms6aHJlZj0iI2EiLz48bGluZWFyR3JhZGllbnQgZ3JhZGllbnRVbml0cz0idXNlclNwYWNlT25Vc2UiIHkyPSI2MS44NzciIHkxPSI0OS45MzciIHgyPSIxMTQuMjk2IiB4MT0iMTE0LjI5NiIgaWQ9InoiPjxzdG9wIHN0b3Atb3BhY2l0eT0iMCIgc3RvcC1jb2xvcj0iI2ZmZiIgb2Zmc2V0PSIwIi8+PHN0b3Agc3RvcC1jb2xvcj0iI2ZmZiIgb2Zmc2V0PSIuMzI1Ii8+PHN0b3Agc3RvcC1vcGFjaXR5PSIwIiBzdG9wLWNvbG9yPSIjZmZmIiBvZmZzZXQ9IjEiLz48L2xpbmVhckdyYWRpZW50PjxsaW5lYXJHcmFkaWVudCBncmFkaWVudFVuaXRzPSJ1c2VyU3BhY2VPblVzZSIgeTI9IjI3MC4xNyIgeTE9Ii0yNy42NTYiIHgyPSIzMTAuODUiIHgxPSIzMTAuODUiIGlkPSJHIj48c3RvcCBvZmZzZXQ9IjAiLz48c3RvcCBzdG9wLWNvbG9yPSIjZmZmIiBvZmZzZXQ9Ii41Ii8+PHN0b3Agc3RvcC1jb2xvcj0iI2ZmZiIgb2Zmc2V0PSIxIi8+PC9saW5lYXJHcmFkaWVudD48bGluZWFyR3JhZGllbnQgZ3JhZGllbnRVbml0cz0idXNlclNwYWNlT25Vc2UiIHkyPSI2My45NTYiIHkxPSIyNi43ODUiIHgyPSI3OS4zOTgiIHgxPSI3MS45NjQiIGlkPSJLIiB4bGluazpocmVmPSIjYiIvPjxsaW5lYXJHcmFkaWVudCBncmFkaWVudFVuaXRzPSJ1c2VyU3BhY2VPblVzZSIgeTI9IjUxLjM2MSIgeTE9IjY3LjE5NiIgeDI9IjYyLjIzNCIgeDE9IjYzLjU1NyIgaWQ9IlMiIHhsaW5rOmhyZWY9IiNiIi8+PGxpbmVhckdyYWRpZW50IGdyYWRpZW50VW5pdHM9InVzZXJTcGFjZU9uVXNlIiB5Mj0iNjYuMTMyIiB5MT0iODAuMzciIHgyPSI2My45OTMiIHgxPSI2My45OTMiIGlkPSJCIiB4bGluazpocmVmPSIjYiIvPjxsaW5lYXJHcmFkaWVudCBncmFkaWVudFVuaXRzPSJ1c2VyU3BhY2VPblVzZSIgeTI9IjkuMzk0IiB5MT0iMy4zOTEiIHgyPSI2Mi45OTEiIHgxPSI2Mi45MDciIGlkPSJyIiB4bGluazpocmVmPSIjYiIvPjxsaW5lYXJHcmFkaWVudCBncmFkaWVudFVuaXRzPSJ1c2VyU3BhY2VPblVzZSIgeTI9IjE2Ny45NjciIHkxPSItMTMuMDMzIiB4Mj0iNTIuNDY5IiB4MT0iNTMuNDY5IiBpZD0icSIgeGxpbms6aHJlZj0iI2MiLz48bGluZWFyR3JhZGllbnQgc3ByZWFkTWV0aG9kPSJyZWZsZWN0IiBncmFkaWVudFVuaXRzPSJ1c2VyU3BhY2VPblVzZSIgeTI9IjEyLjY3OCIgeTE9IjgxLjUiIHgyPSI2NCIgeDE9IjY0IiBpZD0iaSI+PHN0b3Agc3RvcC1jb2xvcj0iI2I0YjRiNCIgb2Zmc2V0PSIwIi8+PHN0b3Agc3RvcC1jb2xvcj0iI2QxZDFkMSIgb2Zmc2V0PSIuNSIvPjxzdG9wIHN0b3AtY29sb3I9IiNmYWZhZmEiIG9mZnNldD0iMSIvPjwvbGluZWFyR3JhZGllbnQ+PGxpbmVhckdyYWRpZW50IGdyYWRpZW50VW5pdHM9InVzZXJTcGFjZU9uVXNlIiB5Mj0iMjMuOCIgeTE9IjEyOC44IiB4Mj0iODAiIHgxPSI5MCIgaWQ9ImgiIHhsaW5rOmhyZWY9IiNjIi8+PGZpbHRlciB5PSItLjA2MSIgeD0iLS4wMzUiIGhlaWdodD0iMS4xMjIiIHdpZHRoPSIxLjA3IiBpZD0ibiI+PGZlR2F1c3NpYW5CbHVyIHN0ZERldmlhdGlvbj0iMS4yODMiLz48L2ZpbHRlcj48ZmlsdGVyIHk9Ii0uMDA3IiB4PSItLjAwMyIgaGVpZ2h0PSIxLjAxNCIgd2lkdGg9IjEuMDA1IiBpZD0icyI+PGZlR2F1c3NpYW5CbHVyIHN0ZERldmlhdGlvbj0iLjAyMyIvPjwvZmlsdGVyPjxmaWx0ZXIgeT0iLS4wMTgiIHg9Ii0uMDA2IiBoZWlnaHQ9IjEuMDM1IiB3aWR0aD0iMS4wMTIiIGlkPSJ2Ij48ZmVHYXVzc2lhbkJsdXIgc3RkRGV2aWF0aW9uPSIuMDkzIi8+PC9maWx0ZXI+PGZpbHRlciB5PSItLjA2MyIgeD0iLS4xMjQiIGhlaWdodD0iMS4xMjUiIHdpZHRoPSIxLjI0NyIgaWQ9InkiPjxmZUdhdXNzaWFuQmx1ciBzdGREZXZpYXRpb249Ii4xMzMiLz48L2ZpbHRlcj48ZmlsdGVyIHk9Ii0uMDM3IiB4PSItLjAzNCIgaGVpZ2h0PSIxLjA3NSIgd2lkdGg9IjEuMDY5IiBpZD0iQSI+PGZlR2F1c3NpYW5CbHVyIHN0ZERldmlhdGlvbj0iLjIwNCIvPjwvZmlsdGVyPjxmaWx0ZXIgeT0iLS4wNzIiIHg9Ii0uMDM3IiBoZWlnaHQ9IjEuMTQ0IiB3aWR0aD0iMS4wNzQiIGlkPSJEIj48ZmVHYXVzc2lhbkJsdXIgc3RkRGV2aWF0aW9uPSIuNDg3Ii8+PC9maWx0ZXI+PGZpbHRlciB5PSItLjAxOCIgeD0iLS4wMDkiIGhlaWdodD0iMS4wMzUiIHdpZHRoPSIxLjAxOCIgaWQ9IkUiPjxmZUdhdXNzaWFuQmx1ciBzdGREZXZpYXRpb249Ii4xMjQiLz48L2ZpbHRlcj48ZmlsdGVyIHk9Ii0uMDE4IiB4PSItLjAwOSIgaGVpZ2h0PSIxLjAzNSIgd2lkdGg9IjEuMDE4IiBpZD0iQyI+PGZlR2F1c3NpYW5CbHVyIHN0ZERldmlhdGlvbj0iLjExOSIvPjwvZmlsdGVyPjxmaWx0ZXIgeT0iLS4wMTMiIHg9Ii0uMDI3IiBoZWlnaHQ9IjEuMDI3IiB3aWR0aD0iMS4wNTQiIGlkPSJGIj48ZmVHYXVzc2lhbkJsdXIgc3RkRGV2aWF0aW9uPSIuMDciLz48L2ZpbHRlcj48ZmlsdGVyIHk9Ii0uMDA0IiB4PSItLjAwNCIgaGVpZ2h0PSIxLjAwOCIgd2lkdGg9IjEuMDA4IiBpZD0iSCI+PGZlR2F1c3NpYW5CbHVyIHN0ZERldmlhdGlvbj0iLjExNCIvPjwvZmlsdGVyPjxmaWx0ZXIgeT0iLS4wNjQiIHg9Ii0uMDY0IiBoZWlnaHQ9IjEuMTI4IiB3aWR0aD0iMS4xMjgiIGlkPSJNIj48ZmVHYXVzc2lhbkJsdXIgc3RkRGV2aWF0aW9uPSIxLjE5NiIvPjwvZmlsdGVyPjxmaWx0ZXIgeT0iLS4wMjYiIHg9Ii0uMDE0IiBoZWlnaHQ9IjEuMDUyIiB3aWR0aD0iMS4wMjgiIGlkPSJQIj48ZmVHYXVzc2lhbkJsdXIgc3RkRGV2aWF0aW9uPSIuMjYxIi8+PC9maWx0ZXI+PGZpbHRlciB5PSItLjAxNyIgeD0iLS4wMDkiIGhlaWdodD0iMS4wMzUiIHdpZHRoPSIxLjAxOCIgaWQ9IlIiPjxmZUdhdXNzaWFuQmx1ciBzdGREZXZpYXRpb249Ii4xNzQiLz48L2ZpbHRlcj48cmFkaWFsR3JhZGllbnQgZ3JhZGllbnRVbml0cz0idXNlclNwYWNlT25Vc2UiIHI9IjYwIiBjeT0iNjQiIGN4PSItODQiIGlkPSJnIiB4bGluazpocmVmPSIjYiIvPjxyYWRpYWxHcmFkaWVudCBncmFkaWVudFVuaXRzPSJ1c2VyU3BhY2VPblVzZSIgZ3JhZGllbnRUcmFuc2Zvcm09Im1hdHJpeCgxIDAgMCAuNTc4MDYgMCAtMTAxLjg0NykiIHI9IjQzLjczNCIgY3k9IjY3Ljg5NSIgY3g9Ijk0LjgxOSIgaWQ9ImwiIHhsaW5rOmhyZWY9IiNiIi8+PHJhZGlhbEdyYWRpZW50IGdyYWRpZW50VW5pdHM9InVzZXJTcGFjZU9uVXNlIiBncmFkaWVudFRyYW5zZm9ybT0ibWF0cml4KDEuMzU4MTQgMS41MDI2IC0xLjYzMzMzIDEuNDc2MyAtNjEuMDUyIC00NC42NDgpIiBmeT0iNjEuNDA0IiByPSI2MCIgY3k9IjIzLjcyNSIgY3g9Ii0xLjI0OSIgaWQ9ImoiPjxzdG9wIHN0b3Atb3BhY2l0eT0iMCIgb2Zmc2V0PSIwIi8+PHN0b3Agc3RvcC1vcGFjaXR5PSIwIiBvZmZzZXQ9Ii42MTEiLz48c3RvcCBzdG9wLW9wYWNpdHk9Ii4zNzgiIG9mZnNldD0iLjY4NSIvPjxzdG9wIHN0b3Atb3BhY2l0eT0iMCIgb2Zmc2V0PSIuNzUiLz48c3RvcCBzdG9wLW9wYWNpdHk9IjAiIG9mZnNldD0iMSIvPjwvcmFkaWFsR3JhZGllbnQ+PHJhZGlhbEdyYWRpZW50IGdyYWRpZW50VW5pdHM9InVzZXJTcGFjZU9uVXNlIiBncmFkaWVudFRyYW5zZm9ybT0ibWF0cml4KDEgMCAwIC41NzgwNiAwIC0xMDEuODQ3KSIgcj0iNDMuNzM0IiBjeT0iODAuNDg4IiBjeD0iODkuNTYxIiBpZD0ibyIgeGxpbms6aHJlZj0iI2IiLz48cmFkaWFsR3JhZGllbnQgZ3JhZGllbnRVbml0cz0idXNlclNwYWNlT25Vc2UiIGdyYWRpZW50VHJhbnNmb3JtPSJtYXRyaXgoMSAwIDAgMS45MDE5NiAwIC02LjE3OCkiIGZ5PSI2LjM0MSIgZng9IjU0LjA0NiIgcj0iMS4yODkiIGN5PSI2Ljg1IiBjeD0iNTQuNjczIiBpZD0idCI+PHN0b3Agc3RvcC1jb2xvcj0iI2ZmZiIgb2Zmc2V0PSIwIi8+PHN0b3Agc3RvcC1vcGFjaXR5PSIuNzkxIiBzdG9wLWNvbG9yPSIjZmZmIiBvZmZzZXQ9Ii41Ii8+PHN0b3Agc3RvcC1vcGFjaXR5PSIwIiBzdG9wLWNvbG9yPSIjZmZmIiBvZmZzZXQ9IjEiLz48L3JhZGlhbEdyYWRpZW50PjxyYWRpYWxHcmFkaWVudCBncmFkaWVudFVuaXRzPSJ1c2VyU3BhY2VPblVzZSIgZ3JhZGllbnRUcmFuc2Zvcm09Im1hdHJpeCgxIDAgMCAxLjkwMTk2IDAgLTYuMTc4KSIgcj0iMS4yODkiIGN5PSI2Ljg1IiBjeD0iNTQuNjczIiBpZD0ieCI+PHN0b3Agc3RvcC1jb2xvcj0iIzQ3NDc0NyIgb2Zmc2V0PSIwIi8+PHN0b3Agc3RvcC1vcGFjaXR5PSIwIiBzdG9wLWNvbG9yPSIjNDc0NzQ3IiBvZmZzZXQ9IjEiLz48L3JhZGlhbEdyYWRpZW50PjxyYWRpYWxHcmFkaWVudCBncmFkaWVudFVuaXRzPSJ1c2VyU3BhY2VPblVzZSIgZ3JhZGllbnRUcmFuc2Zvcm09Im1hdHJpeCguNzg2MDggMCAwIC43NTA0MyAxMy43MTMgMTQuNTM0KSIgZnk9Ijc0LjgxNiIgZng9IjYzLjI5MiIgcj0iMjIuNjg2IiBjeT0iNjEuNDcxIiBjeD0iNjQuMTAxIiBpZD0iSSIgeGxpbms6aHJlZj0iI2UiLz48cmFkaWFsR3JhZGllbnQgZ3JhZGllbnRVbml0cz0idXNlclNwYWNlT25Vc2UiIGdyYWRpZW50VHJhbnNmb3JtPSJtYXRyaXgoLjkxNDUgMCAwIC44NzMwMiA1LjQ4IDYuOTk5KSIgZnk9Ijc0LjQyOSIgZng9Ijc2LjU5NyIgcj0iMjIuNjg2IiBjeT0iNjEuNDcxIiBjeD0iNjQuMTAxIiBpZD0iSiIgeGxpbms6aHJlZj0iI2UiLz48cmFkaWFsR3JhZGllbnQgZ3JhZGllbnRVbml0cz0idXNlclNwYWNlT25Vc2UiIGdyYWRpZW50VHJhbnNmb3JtPSJtYXRyaXgoLjk2Nzk4IC0uMTA3NTUgLjI3NjM4IDIuNDg3NDUgLTE1LjU4NSAtOTIuNDM0KSIgcj0iMjMuMjc5IiBjeT0iODEuMjU3IiBjeD0iMjY3LjQyNSIgaWQ9Ik4iPjxzdG9wIHN0b3AtY29sb3I9IiNkN2Q3ZDciIG9mZnNldD0iMCIvPjxzdG9wIHN0b3AtY29sb3I9IiNmZmYiIG9mZnNldD0iMSIvPjwvcmFkaWFsR3JhZGllbnQ+PHJhZGlhbEdyYWRpZW50IGdyYWRpZW50VW5pdHM9InVzZXJTcGFjZU9uVXNlIiByPSI2MCIgY3k9IjY0IiBjeD0iNjQiIGlkPSJwIiB4bGluazpocmVmPSIjYiIvPjxjbGlwUGF0aCBpZD0ibSI+PHBhdGggZD0iTTc2LjkwNi03MC4wNjJDNzMuOTk0LTY2LjA5IDY5LjMtNjMuNSA2NC02My41YTE1Ljk2IDE1Ljk2IDAgMCAxLTEyLjIxOS01LjY1NmMtMjMuMTQtNC4yODYtMjYuNjE3IDE0LjA0LTMxLjUgMzAuNzUuNDEuNDM0LjgwNy44NjQgMS4yODIgMS4zNDQgMi4zMjcgMi4zMDIgMy45NDUgMy42NzcgNi41NjIgNS42NTYuNzg5LjU3MiAxLjc4My42ODUgMi40NjkgMGw3LjA5My02LjI1YTIuMSAyLjEgMCAwIDEgMi4zNzYtLjI1bC4wOTMtLjA5NEE0Ny44IDQ3LjggMCAwIDAgNTEuNS0zMy4zMTJ2LjE1NmMuNzM2LjIwOSAxLjQ0Ljg1OSAxLjUzMSAxLjg0NGwuNTk0IDkuNDM3YzAgLjk3Ljc4OCAxLjU5NyAxLjc1IDEuNzUgMy4yNS40NTEgNS4zNTEuNjA4IDguNjI1LjYyNSAzLjI3NC0uMDE3IDUuMzc2LS4xNzQgOC42MjUtLjYyNS45NjItLjE1MyAxLjc1LS43OCAxLjc1LTEuNzVsLjU5NC05LjQzN2EyLjExIDIuMTEgMCAwIDEgMS41MzEtMS44NDR2LS4xNTZBNDcuOCA0Ny44IDAgMCAwIDg3Ljg0NC0zOGwuMDk0LjA5NGEyLjEgMi4xIDAgMCAxIDIuMzc0LjI1bDcuMDk0IDYuMjVjLjY4Ni42ODUgMS42OC41NzIgMi40NjkgMCAyLjYxNy0xLjk3OSA0LjIzNS0zLjM1NCA2LjU2My01LjY1Ni40ODUtLjQ5MS44OTUtLjkzMiAxLjMxMi0xLjM3NSAzLjkyNC03LjA4Ny0yNS42MS00My40MzUtMzAuODQ0LTMxLjYyNSIvPjwvY2xpcFBhdGg+PGNsaXBQYXRoIGlkPSJMIj48cGF0aCBkPSJNOTkuNDEgMzkuMzU3YTQwLjAzIDIwLjAxNSAwIDEgMS04MC4wNiAwIDQwLjAzIDIwLjAxNSAwIDEgMSA4MC4wNiAwIi8+PC9jbGlwUGF0aD48Y2xpcFBhdGggaWQ9IlEiPjxwYXRoIGQ9Ik0xNTEuNDI5IDQ1LjI5NWExMC4xIDEwLjEgMCAwIDAtOS43MDQgMTAuMDk4VjgwLjY0YTEwLjEgMTAuMSAwIDAgMCAxNC41OTUgOC45OTNsMjUuMjQ2LTEyLjYyMmExMC4xIDEwLjEgMCAwIDAgMC0xNy45ODhMMTU2LjMyIDQ2LjRhMTAuMSAxMC4xIDAgMCAwLTQuODkxLTEuMTA0eiIvPjwvY2xpcFBhdGg+PGNsaXBQYXRoIGlkPSJPIj48cGF0aCBkPSJNMjAwLjE2MiA0NS4yOTVhMTAuMSAxMC4xIDAgMCAwLTkuNzA0IDEwLjA5OFY4MC42NGExMC4xIDEwLjEgMCAwIDAgMTQuNTk1IDguOTkzTDIzMC4zIDc3LjAxYTEwLjEgMTAuMSAwIDAgMCAwLTE3Ljk4OEwyMDUuMDUzIDQ2LjRhMTAuMSAxMC4xIDAgMCAwLTQuODkxLTEuMTA0eiIvPjwvY2xpcFBhdGg+PG1hc2sgbWFza1VuaXRzPSJ1c2VyU3BhY2VPblVzZSIgaWQ9ImsiPjxwYXRoIGQ9Ik0tODQgNGMtMy4yNzQuMDE3LTUuMzc2LjE3NC04LjYyNS42MjUtLjk2Mi4xNTMtMS43NS43OC0xLjc1IDEuNzVsLS41OTQgOS40MzhjLS4wODguOTU1LS43NTYgMS41ODQtMS40NjggMS44MTItLjAyMi4wMDctLjA0MS4wMjUtLjA2My4wMzFhNDcuOSA0Ny45IDAgMCAwLTExLjYyNSA0LjgxMyAyLjA4IDIuMDggMCAwIDEtMi4xODgtLjMxM2wtNy4wOTMtNi4yNWMtLjY4Ni0uNjg1LTEuNjgtLjU3Mi0yLjQ2OSAwLTIuNjE3IDEuOTc5LTQuMjM1IDMuMzU0LTYuNTYzIDUuNjU2LTIuMzAyIDIuMzI4LTMuNjc3IDMuOTQ2LTUuNjU2IDYuNTYzLS41NzIuNzg5LS42ODUgMS43ODMgMCAyLjQ2OWw2LjI1IDcuMDkzYy40NzQuNTcxLjczNiAxLjMxLjQ2OSAxLjg0NGwtLjA2My4xMjVhNDcuNiA0Ny42IDAgMCAwLTUuMTI0IDEyLjMxM3EtLjAxNi4wMzEtLjAzMi4wNjJhMi4wNyAyLjA3IDAgMCAxLTEuNTk0IDFsLTkuNDM3LjU5NGMtLjk3IDAtMS41OTcuNzg4LTEuNzUgMS43NS0uNDUxIDMuMjUtLjYwOCA1LjM1MS0uNjI1IDguNjI1LjAxNyAzLjI3NC4xNzQgNS4zNzYuNjI1IDguNjI1LjE1My45NjIuNzggMS43NSAxLjc1IDEuNzVsOS40MzguNTk0Yy44NjcuMDggMS40NDMuNjQ2IDEuNzE4IDEuMjgxYTQ3LjYgNDcuNiAwIDAgMCA0Ljg3NSAxMS42ODggMi4xIDIuMSAwIDAgMS0uMjUgMi4zNzRsLTYuMjUgNy4wOTRjLS42ODUuNjg2LS41NzIgMS42OCAwIDIuNDY5IDEuOTc5IDIuNjE3IDMuMzU0IDQuMjM1IDUuNjU2IDYuNTYzIDIuMzI4IDIuMzAyIDMuOTQ2IDMuNjc3IDYuNTYzIDUuNjU2Ljc4OS41NzIgMS43ODMuNjg1IDIuNDY5IDBsNy4wOTQtNi4yNWEyLjEgMi4xIDAgMCAxIDIuMzc0LS4yNWwuMDk0LS4wOTRhNDcuOCA0Ny44IDAgMCAwIDExLjM0NCA0LjY4OHYuMTU2Yy43MzYuMjA5IDEuNDQuODU5IDEuNTMxIDEuODQ0bC41OTQgOS40MzdjMCAuOTcuNzg4IDEuNTk3IDEuNzUgMS43NSAzLjI1LjQ1MSA1LjM1MS42MDggOC42MjUuNjI1IDMuMjc0LS4wMTcgNS4zNzYtLjE3NCA4LjYyNS0uNjI1Ljk2Mi0uMTUzIDEuNzUtLjc4IDEuNzUtMS43NWwuNTk0LTkuNDM4YTIuMTEgMi4xMSAwIDAgMSAxLjUzMS0xLjg0M3YtLjE1NmE0Ny44IDQ3LjggMCAwIDAgMTEuMzQ0LTQuNjg4bC4wOTQuMDk0YTIuMSAyLjEgMCAwIDEgMi4zNzUuMjVsNy4wOTMgNi4yNWMuNjg2LjY4NSAxLjY4LjU3MiAyLjQ2OSAwIDIuNjE3LTEuOTc5IDQuMjM1LTMuMzU0IDYuNTYzLTUuNjU2IDIuMzAyLTIuMzI4IDMuNjc3LTMuOTQ2IDUuNjU2LTYuNTYzLjU3Mi0uNzg5LjY4NS0xLjc4MyAwLTIuNDY5bC02LjI1LTcuMDk0YTIuMSAyLjEgMCAwIDEtLjI1LTIuMzc0IDQ3LjYgNDcuNiAwIDAgMCA0Ljg3NS0xMS42ODhjLjI3NS0uNjM1Ljg1MS0xLjIgMS43MTktMS4yODFsOS40MzctLjU5NGMuOTcgMCAxLjU5Ny0uNzg4IDEuNzUtMS43NS40NTEtMy4yNS42MDgtNS4zNTEuNjI1LTguNjI1LS4wMTctMy4yNzQtLjE3NC01LjM3Ni0uNjI1LTguNjI1LS4xNTMtLjk2Mi0uNzgtMS43NS0xLjc1LTEuNzVsLTkuNDM3LS41OTRhMi4wNyAyLjA3IDAgMCAxLTEuNTk0LTFjLS4wMDYtLjAyMi0uMDI2LS4wNC0uMDMxLS4wNjItMS4xMy00LjM3Ni0zLjE1Mi04LjM2NS01LjEyNS0xMi4zMTNsLS4wNjMtLjEyNWMtLjI2Ny0uNTM1LS4wMDUtMS4yNzMuNDY5LTEuODQzbDYuMjUtNy4wOTRjLjY4NS0uNjg2LjU3Mi0xLjY4IDAtMi40NjktMS45NzktMi42MTctMy4zNTQtNC4yMzUtNS42NTYtNi41NjMtMi4zMjgtMi4zMDItMy45NDYtMy42NzctNi41NjMtNS42NTYtLjc4OS0uNTcyLTEuNzgzLS42ODUtMi40NjkgMGwtNy4wOTMgNi4yNWEyLjA4IDIuMDggMCAwIDEtMi4xODguMzEzQTQ3LjkgNDcuOSAwIDAgMC03MS41IDE3LjY1NmMtLjAyMi0uMDA2LS4wNC0uMDI0LS4wNjItLjAzMS0uNzEzLS4yMjgtMS4zOC0uODU3LTEuNDctMS44MTNsLS41OTMtOS40MzdjMC0uOTctLjc4OC0xLjU5Ny0xLjc1LTEuNzUtMy4yNS0uNDUxLTUuMzUxLS42MDgtOC42MjUtLjYyNW0wIDQ0YzguODMyIDAgMTYgNy4xNjggMTYgMTZzLTcuMTY4IDE2LTE2IDE2LTE2LTcuMTY4LTE2LTE2IDcuMTY4LTE2IDE2LTE2IiBmaWxsPSJ1cmwoI2cpIi8+PC9tYXNrPjwvZGVmcz48cGF0aCBzdHlsZT0iZmlsbDojMzYzNjM2O3N0cm9rZTojNzY3Njc2O3N0cm9rZS13aWR0aDoyO3N0cm9rZS1saW5lY2FwOnJvdW5kO3N0cm9rZS1saW5lam9pbjpyb3VuZDtzdHJva2UtZGFzaG9mZnNldDoxLjA4NzgiIGQ9Ik02NCA0Yy0zLjI3NC4wMTctNS4zNzYuMTc0LTguNjI1LjYyNS0uOTYyLjE1My0xLjc1Ljc4LTEuNzUgMS43NWwtLjU5NCA5LjQzOGMtLjA4OC45NTUtLjc1NiAxLjU4NC0xLjQ2OCAxLjgxMi0uMDIyLjAwNy0uMDQxLjAyNS0uMDYzLjAzMWE0Ny45IDQ3LjkgMCAwIDAtMTEuNjI1IDQuODEzIDIuMDggMi4wOCAwIDAgMS0yLjE4Ny0uMzEzbC03LjA5NC02LjI1Yy0uNjg2LS42ODUtMS42OC0uNTcyLTIuNDY5IDAtMi42MTcgMS45NzktNC4yMzUgMy4zNTQtNi41NjIgNS42NTYtMi4zMDMgMi4zMjgtMy42NzggMy45NDYtNS42NTcgNi41NjMtLjU3Mi43ODktLjY4NSAxLjc4MyAwIDIuNDY5bDYuMjUgNy4wOTNjLjQ3NC41NzEuNzM2IDEuMzEuNDY5IDEuODQ0bC0uMDYyLjEyNWE0Ny42IDQ3LjYgMCAwIDAtNS4xMjUgMTIuMzEzYy0uMDEyLjAyLS4wMi4wNDItLjAzMi4wNjJhMi4wNyAyLjA3IDAgMCAxLTEuNTkzIDFsLTkuNDM4LjU5NGMtLjk3IDAtMS41OTcuNzg4LTEuNzUgMS43NUM0LjE3NCA1OC42MjUgNC4wMTcgNjAuNzI2IDQgNjRjLjAxNyAzLjI3NC4xNzQgNS4zNzYuNjI1IDguNjI1LjE1My45NjIuNzggMS43NSAxLjc1IDEuNzVsOS40MzguNTk0Yy44NjcuMDggMS40NDMuNjQ2IDEuNzE4IDEuMjgxYTQ3LjYgNDcuNiAwIDAgMCA0Ljg3NSAxMS42ODggMi4xIDIuMSAwIDAgMS0uMjUgMi4zNzRsLTYuMjUgNy4wOTRjLS42ODUuNjg2LS41NzIgMS42OCAwIDIuNDY5IDEuOTc5IDIuNjE3IDMuMzU0IDQuMjM1IDUuNjU3IDYuNTYzIDIuMzI3IDIuMzAyIDMuOTQ1IDMuNjc3IDYuNTYyIDUuNjU2Ljc4OS41NzIgMS43ODMuNjg1IDIuNDY5IDBsNy4wOTQtNi4yNWEyLjEgMi4xIDAgMCAxIDIuMzc1LS4yNWwuMDkzLS4wOTRhNDcuOCA0Ny44IDAgMCAwIDExLjM0NCA0LjY4OHYuMTU2Yy43MzYuMjA5IDEuNDQuODU5IDEuNTMxIDEuODQ0bC41OTQgOS40MzdjMCAuOTcuNzg4IDEuNTk3IDEuNzUgMS43NSAzLjI1LjQ1MSA1LjM1MS42MDggOC42MjUuNjI1IDMuMjc0LS4wMTcgNS4zNzYtLjE3NCA4LjYyNS0uNjI1Ljk2Mi0uMTUzIDEuNzUtLjc4IDEuNzUtMS43NWwuNTk0LTkuNDM4YTIuMTEgMi4xMSAwIDAgMSAxLjUzMS0xLjg0M3YtLjE1NmE0Ny44IDQ3LjggMCAwIDAgMTEuMzQ0LTQuNjg4bC4wOTQuMDk0YTIuMSAyLjEgMCAwIDEgMi4zNzUuMjVsNy4wOTMgNi4yNWMuNjg2LjY4NSAxLjY4LjU3MiAyLjQ2OSAwIDIuNjE3LTEuOTc5IDQuMjM1LTMuMzU0IDYuNTYzLTUuNjU2IDIuMzAyLTIuMzI4IDMuNjc3LTMuOTQ2IDUuNjU2LTYuNTYzLjU3Mi0uNzg5LjY4NS0xLjc4MyAwLTIuNDY5bC02LjI1LTcuMDk0YTIuMSAyLjEgMCAwIDEtLjI1LTIuMzc0IDQ3LjYgNDcuNiAwIDAgMCA0Ljg3NS0xMS42ODhjLjI3NS0uNjM1Ljg1MS0xLjIgMS43MTktMS4yODFsOS40MzctLjU5NGMuOTcgMCAxLjU5Ny0uNzg4IDEuNzUtMS43NS40NTEtMy4yNS42MDgtNS4zNTEuNjI1LTguNjI1LS4wMTctMy4yNzQtLjE3NC01LjM3Ni0uNjI1LTguNjI1LS4xNTMtLjk2Mi0uNzgtMS43NS0xLjc1LTEuNzVsLTkuNDM4LS41OTRhMi4wNyAyLjA3IDAgMCAxLTEuNTkzLTFjLS4wMDYtLjAyMi0uMDI2LS4wNC0uMDMxLS4wNjItMS4xMy00LjM3Ni0zLjE1Mi04LjM2NS01LjEyNi0xMi4zMTNsLS4wNjItLjEyNWMtLjI2Ny0uNTM1LS4wMDUtMS4yNzMuNDY5LTEuODQzbDYuMjUtNy4wOTRjLjY4NS0uNjg2LjU3Mi0xLjY4IDAtMi40NjktMS45NzktMi42MTctMy4zNTQtNC4yMzUtNS42NTYtNi41NjMtMi4zMjgtMi4zMDItMy45NDYtMy42NzctNi41NjMtNS42NTYtLjc4OS0uNTcyLTEuNzgzLS42ODUtMi40NjkgMGwtNy4wOTMgNi4yNWEyLjA4IDIuMDggMCAwIDEtMi4xODguMzEzQTQ3LjkgNDcuOSAwIDAgMCA3Ni41IDE3LjY1NmMtLjAyMi0uMDA2LS4wNC0uMDI0LS4wNjItLjAzMS0uNzEzLS4yMjgtMS4zOC0uODU3LTEuNDctMS44MTNsLS41OTMtOS40MzdjMC0uOTctLjc4OC0xLjU5Ny0xLjc1LTEuNzVDNjkuMzc1IDQuMTc0IDY3LjI3NCA0LjAxNyA2NCA0bTAgNDRjOC44MzIgMCAxNiA3LjE2OCAxNiAxNnMtNy4xNjggMTYtMTYgMTYtMTYtNy4xNjgtMTYtMTYgNy4xNjgtMTYgMTYtMTYiLz48cGF0aCBzdHlsZT0iZmlsbDpub25lO3N0cm9rZS1saW5lY2FwOnJvdW5kO3N0cm9rZS1saW5lam9pbjpyb3VuZDtzdHJva2UtZGFzaG9mZnNldDoxLjA4Nzg7c3Ryb2tlOnVybCgjaCk7ZmlsdGVyOnVybCgjZmlsdGVyNjQ0NCkiIGQ9Ik02My45NyA0Ljc2N2MtMy4yNzUuMDE3LTUuMzc2LjE3NC04LjYyNi42MjUtLjk2Mi4xNTMtMS43NS43OC0xLjc1IDEuNzVsLS41OTMgOS40MzdjLS4wODkuOTU2LS43NTcgMS41ODUtMS40NyAxLjgxMy0uMDIxLjAwNy0uMDQuMDI1LS4wNjIuMDMxYTQ3LjkgNDcuOSAwIDAgMC0xMS42MjUgNC44MTMgMi4wOCAyLjA4IDAgMCAxLTIuMTg3LS4zMTNsLTcuMDk0LTYuMjVjLS42ODUtLjY4NS0xLjY4LS41NzItMi40NjkgMC0yLjYxNiAxLjk3OS00LjIzNSAzLjM1NC02LjU2MiA1LjY1Ni0yLjMwMyAyLjMyOC0zLjY3OCAzLjk0Ni01LjY1NiA2LjU2My0uNTcyLjc4OC0uNjg2IDEuNzgzIDAgMi40NjlsNi4yNSA3LjA5M2MuNDczLjU3LjczNiAxLjMxLjQ2OCAxLjg0NGwtLjA2Mi4xMjVhNDcuNiA0Ny42IDAgMCAwLTUuMTI1IDEyLjMxM2MtLjAxMi4wMi0uMDE5LjA0Mi0uMDMxLjA2MmEyLjA3IDIuMDcgMCAwIDEtMS41OTQgMWwtOS40MzguNTk0Yy0uOTcgMC0xLjU5Ni43ODgtMS43NSAxLjc1LS40NSAzLjI1LS42MDcgNS4zNTEtLjYyNSA4LjYyNS4wMTggMy4yNzQuMTc0IDUuMzc2LjYyNSA4LjYyNS4xNTQuOTYyLjc4IDEuNzUgMS43NSAxLjc1bDkuNDM4LjU5NGMuODY3LjA4IDEuNDQzLjY0NiAxLjcxOSAxLjI4YTQ3LjYgNDcuNiAwIDAgMCA0Ljg3NSAxMS42ODggMi4xIDIuMSAwIDAgMS0uMjUgMi4zNzVsLTYuMjUgNy4wOTRjLS42ODYuNjg2LS41NzIgMS42OCAwIDIuNDY5IDEuOTc4IDIuNjE2IDMuMzUzIDQuMjM1IDUuNjU2IDYuNTYyIDIuMzI3IDIuMzAzIDMuOTQ2IDMuNjc4IDYuNTYyIDUuNjU3Ljc4OS41NzIgMS43ODQuNjg1IDIuNDcgMGw3LjA5My02LjI1YTIuMSAyLjEgMCAwIDEgMi4zNzUtLjI1bC4wOTQtLjA5NGE0Ny44IDQ3LjggMCAwIDAgMTEuMzQzIDQuNjg3di4xNTdjLjczNy4yMDkgMS40NC44NTkgMS41MzIgMS44NDNsLjU5MyA5LjQzOGMwIC45Ny43ODggMS41OTcgMS43NSAxLjc1IDMuMjUuNDUxIDUuMzUxLjYwOCA4LjYyNS42MjUgMy4yNzQtLjAxNyA1LjM3Ni0uMTc0IDguNjI1LS42MjUuOTYyLS4xNTMgMS43NS0uNzggMS43NS0xLjc1bC41OTQtOS40MzhhMi4xMSAyLjExIDAgMCAxIDEuNTMxLTEuODQzdi0uMTU3YTQ3LjggNDcuOCAwIDAgMCAxMS4zNDQtNC42ODdsLjA5NC4wOTRhMi4xIDIuMSAwIDAgMSAyLjM3NS4yNWw3LjA5NCA2LjI1Yy42ODUuNjg1IDEuNjguNTcyIDIuNDY4IDAgMi42MTctMS45NzkgNC4yMzYtMy4zNTQgNi41NjMtNS42NTcgMi4zMDMtMi4zMjcgMy42NzctMy45NDYgNS42NTYtNi41NjIuNTcyLS43ODkuNjg2LTEuNzgzIDAtMi40NjlsLTYuMjUtNy4wOTRhMi4xIDIuMSAwIDAgMS0uMjUtMi4zNzUgNDcuNiA0Ny42IDAgMCAwIDQuODc1LTExLjY4N2MuMjc1LS42MzUuODUxLTEuMjAxIDEuNzE5LTEuMjgxbDkuNDM3LS41OTRjLjk3IDAgMS41OTctLjc4OCAxLjc1LTEuNzUuNDUxLTMuMjUuNjA4LTUuMzUxLjYyNS04LjYyNS0uMDE3LTMuMjc0LS4xNzQtNS4zNzYtLjYyNS04LjYyNS0uMTUzLS45NjItLjc4LTEuNzUtMS43NS0xLjc1bC05LjQzNy0uNTk0YTIuMDcgMi4wNyAwIDAgMS0xLjU5NC0xYy0uMDA2LS4wMjItLjAyNi0uMDQtLjAzMS0uMDYyLTEuMTMtNC4zNzctMy4xNTEtOC4zNjUtNS4xMjUtMTIuMzEzbC0uMDYzLS4xMjVjLS4yNjctLjUzNS0uMDA1LTEuMjczLjQ3LTEuODQ0bDYuMjUtNy4wOTNjLjY4NS0uNjg2LjU3MS0xLjY4IDAtMi40Ny0xLjk4LTIuNjE2LTMuMzU0LTQuMjM0LTUuNjU3LTYuNTYyLTIuMzI3LTIuMzAyLTMuOTQ2LTMuNjc3LTYuNTYzLTUuNjU2LS43ODgtLjU3Mi0xLjc4My0uNjg1LTIuNDY4IDBsLTcuMDk0IDYuMjVhMi4wOCAyLjA4IDAgMCAxLTIuMTg4LjMxMyA0Ny45IDQ3LjkgMCAwIDAtMTEuNjI1LTQuODEzYy0uMDIyLS4wMDYtLjA0LS4wMjQtLjA2Mi0uMDMxLS43MTItLjIyOC0xLjM4LS44NTctMS40NjktMS44MTNsLS41OTQtOS40MzdjMC0uOTctLjc4OC0xLjU5Ny0xLjc1LTEuNzUtMy4yNDktLjQ1MS01LjM1LS42MDgtOC42MjUtLjYyNXoiLz48cGF0aCBkPSJNNjQgNGMtMy4yNzQuMDE3LTUuMzc2LjE3NC04LjYyNS42MjUtLjk2Mi4xNTMtMS43NS43OC0xLjc1IDEuNzVsLS41OTQgOS40MzhjLS4wODguOTU1LS43NTYgMS41ODQtMS40NjggMS44MTItLjAyMi4wMDctLjA0MS4wMjUtLjA2My4wMzFhNDcuOSA0Ny45IDAgMCAwLTExLjYyNSA0LjgxMyAyLjA4IDIuMDggMCAwIDEtMi4xODctLjMxM2wtNy4wOTQtNi4yNWMtLjY4Ni0uNjg1LTEuNjgtLjU3Mi0yLjQ2OSAwLTIuNjE3IDEuOTc5LTQuMjM1IDMuMzU0LTYuNTYyIDUuNjU2LTIuMzAzIDIuMzI4LTMuNjc4IDMuOTQ2LTUuNjU3IDYuNTYzLS41NzIuNzg5LS42ODUgMS43ODMgMCAyLjQ2OWw2LjI1IDcuMDkzYy40NzQuNTcxLjczNiAxLjMxLjQ2OSAxLjg0NGwtLjA2Mi4xMjVhNDcuNiA0Ny42IDAgMCAwLTUuMTI1IDEyLjMxM2MtLjAxMi4wMi0uMDIuMDQyLS4wMzIuMDYyYTIuMDcgMi4wNyAwIDAgMS0xLjU5MyAxbC05LjQzOC41OTRjLS45NyAwLTEuNTk3Ljc4OC0xLjc1IDEuNzVDNC4xNzQgNTguNjI1IDQuMDE3IDYwLjcyNiA0IDY0Yy4wMTcgMy4yNzQuMTc0IDUuMzc2LjYyNSA4LjYyNS4xNTMuOTYyLjc4IDEuNzUgMS43NSAxLjc1bDkuNDM4LjU5NGMuODY3LjA4IDEuNDQzLjY0NiAxLjcxOCAxLjI4MWE0Ny42IDQ3LjYgMCAwIDAgNC44NzUgMTEuNjg4IDIuMSAyLjEgMCAwIDEtLjI1IDIuMzc1bC02LjI1IDcuMDkzYy0uNjg1LjY4Ni0uNTcyIDEuNjggMCAyLjQ2OSAxLjk3OSAyLjYxNyAzLjM1NCA0LjIzNSA1LjY1NyA2LjU2MyAyLjMyNyAyLjMwMiAzLjk0NSAzLjY3NyA2LjU2MiA1LjY1Ni43ODkuNTcyIDEuNzgzLjY4NSAyLjQ2OSAwbDcuMDk0LTYuMjVhMi4xIDIuMSAwIDAgMSAyLjM3NS0uMjVsLjA5My0uMDk0YTQ3LjggNDcuOCAwIDAgMCAxMS4zNDQgNC42ODh2LjE1NmMuNzM2LjIwOSAxLjQ0Ljg1OSAxLjUzMSAxLjg0NGwuNTk0IDkuNDM3YzAgLjk3Ljc4OCAxLjU5NyAxLjc1IDEuNzUgMy4yNS40NTEgNS4zNTEuNjA4IDguNjI1LjYyNSAzLjI3NC0uMDE3IDUuMzc2LS4xNzQgOC42MjUtLjYyNS45NjItLjE1MyAxLjc1LS43OCAxLjc1LTEuNzVsLjU5NC05LjQzOGEyLjExIDIuMTEgMCAwIDEgMS41MzEtMS44NDN2LS4xNTZhNDcuOCA0Ny44IDAgMCAwIDExLjM0NC00LjY4OGwuMDk0LjA5NGEyLjEgMi4xIDAgMCAxIDIuMzc1LjI1bDcuMDkzIDYuMjVjLjY4Ni42ODUgMS42OC41NzIgMi40NjkgMCAyLjYxNy0xLjk3OSA0LjIzNS0zLjM1NCA2LjU2Mi01LjY1NiAyLjMwMy0yLjMyOCAzLjY3OC0zLjk0NiA1LjY1Ny02LjU2My41NzItLjc4OS42ODUtMS43ODMgMC0yLjQ2OWwtNi4yNS03LjA5M2EyLjEgMi4xIDAgMCAxLS4yNS0yLjM3NSA0Ny42IDQ3LjYgMCAwIDAgNC44NzUtMTEuNjg4Yy4yNzUtLjYzNS44NTEtMS4yIDEuNzE4LTEuMjgxbDkuNDM4LS41OTRjLjk3IDAgMS41OTctLjc4OCAxLjc1LTEuNzUuNDUxLTMuMjUuNjA4LTUuMzUxLjYyNS04LjYyNS0uMDE3LTMuMjc0LS4xNzQtNS4zNzYtLjYyNS04LjYyNS0uMTUzLS45NjItLjc4LTEuNzUtMS43NS0xLjc1bC05LjQzOC0uNTk0YTIuMDcgMi4wNyAwIDAgMS0xLjU5My0xYy0uMDA2LS4wMjItLjAyNi0uMDQtLjAzMi0uMDYyLTEuMTMtNC4zNzYtMy4xNS04LjM2NS01LjEyNS0xMi4zMTNsLS4wNjItLjEyNWMtLjI2Ny0uNTM1LS4wMDUtMS4yNzMuNDY5LTEuODQzbDYuMjUtNy4wOTRjLjY4NS0uNjg2LjU3Mi0xLjY4IDAtMi40NjktMS45NzktMi42MTctMy4zNTQtNC4yMzUtNS42NTctNi41NjMtMi4zMjctMi4zMDItMy45NDUtMy42NzctNi41NjItNS42NTYtLjc4OS0uNTcyLTEuNzgzLS42ODUtMi40NjkgMGwtNy4wOTMgNi4yNWEyLjA4IDIuMDggMCAwIDEtMi4xODguMzEzQTQ3LjkgNDcuOSAwIDAgMCA3Ni41IDE3LjY1NmMtLjAyMi0uMDA2LS4wNC0uMDI0LS4wNjItLjAzMS0uNzEzLS4yMjgtMS4zOC0uODU3LTEuNDctMS44MTNsLS41OTMtOS40MzdjMC0uOTctLjc4OC0xLjU5Ny0xLjc1LTEuNzVDNjkuMzc1IDQuMTc0IDY3LjI3NCA0LjAxNyA2NCA0bTAgNDRjOC44MzIgMCAxNiA3LjE2OCAxNiAxNnMtNy4xNjggMTYtMTYgMTYtMTYtNy4xNjgtMTYtMTYgNy4xNjgtMTYgMTYtMTYiIGZpbGw9InVybCgjaSkiLz48cGF0aCB0cmFuc2Zvcm09InRyYW5zbGF0ZSgxNDgpIiBtYXNrPSJ1cmwoI2spIiBkPSJNLTg0IDRjLTMuMjc0LjAxNy01LjM3Ni4xNzQtOC42MjUuNjI1LS45NjIuMTUzLTEuNzUuNzgtMS43NSAxLjc1bC0uNTk0IDkuNDM4Yy0uMDg4Ljk1NS0uNzU2IDEuNTg0LTEuNDY4IDEuODEyLS4wMjIuMDA3LS4wNDEuMDI1LS4wNjMuMDMxYTQ3LjkgNDcuOSAwIDAgMC0xMS42MjUgNC44MTMgMi4wOCAyLjA4IDAgMCAxLTIuMTg4LS4zMTNsLTcuMDkzLTYuMjVjLS42ODYtLjY4NS0xLjY4LS41NzItMi40NjkgMC0yLjYxNyAxLjk3OS00LjIzNSAzLjM1NC02LjU2MyA1LjY1Ni0yLjMwMiAyLjMyOC0zLjY3NyAzLjk0Ni01LjY1NiA2LjU2My0uNTcyLjc4OS0uNjg1IDEuNzgzIDAgMi40NjlsNi4yNSA3LjA5M2MuNDc0LjU3MS43MzYgMS4zMS40NjkgMS44NDRsLS4wNjMuMTI1YTQ3LjYgNDcuNiAwIDAgMC01LjEyNCAxMi4zMTNxLS4wMTYuMDMxLS4wMzIuMDYyYTIuMDcgMi4wNyAwIDAgMS0xLjU5NCAxbC05LjQzNy41OTRjLS45NyAwLTEuNTk3Ljc4OC0xLjc1IDEuNzUtLjQ1MSAzLjI1LS42MDggNS4zNTEtLjYyNSA4LjYyNS4wMTcgMy4yNzQuMTc0IDUuMzc2LjYyNSA4LjYyNS4xNTMuOTYyLjc4IDEuNzUgMS43NSAxLjc1bDkuNDM4LjU5NGMuODY3LjA4IDEuNDQzLjY0NiAxLjcxOCAxLjI4MWE0Ny42IDQ3LjYgMCAwIDAgNC44NzUgMTEuNjg4IDIuMSAyLjEgMCAwIDEtLjI1IDIuMzc0bC02LjI1IDcuMDk0Yy0uNjg1LjY4Ni0uNTcyIDEuNjggMCAyLjQ2OSAxLjk3OSAyLjYxNyAzLjM1NCA0LjIzNSA1LjY1NiA2LjU2MyAyLjMyOCAyLjMwMiAzLjk0NiAzLjY3NyA2LjU2MyA1LjY1Ni43ODkuNTcyIDEuNzgzLjY4NSAyLjQ2OSAwbDcuMDk0LTYuMjVhMi4xIDIuMSAwIDAgMSAyLjM3NC0uMjVsLjA5NC0uMDk0YTQ3LjggNDcuOCAwIDAgMCAxMS4zNDQgNC42ODh2LjE1NmMuNzM2LjIwOSAxLjQ0Ljg1OSAxLjUzMSAxLjg0NGwuNTk0IDkuNDM3YzAgLjk3Ljc4OCAxLjU5NyAxLjc1IDEuNzUgMy4yNS40NTEgNS4zNTEuNjA4IDguNjI1LjYyNSAzLjI3NC0uMDE3IDUuMzc2LS4xNzQgOC42MjUtLjYyNS45NjItLjE1MyAxLjc1LS43OCAxLjc1LTEuNzVsLjU5NC05LjQzOGEyLjExIDIuMTEgMCAwIDEgMS41MzEtMS44NDN2LS4xNTZhNDcuOCA0Ny44IDAgMCAwIDExLjM0NC00LjY4OGwuMDk0LjA5NGEyLjEgMi4xIDAgMCAxIDIuMzc1LjI1bDcuMDkzIDYuMjVjLjY4Ni42ODUgMS42OC41NzIgMi40NjkgMCAyLjYxNy0xLjk3OSA0LjIzNS0zLjM1NCA2LjU2My01LjY1NiAyLjMwMi0yLjMyOCAzLjY3Ny0zLjk0NiA1LjY1Ni02LjU2My41NzItLjc4OS42ODUtMS43ODMgMC0yLjQ2OWwtNi4yNS03LjA5NGEyLjEgMi4xIDAgMCAxLS4yNS0yLjM3NCA0Ny42IDQ3LjYgMCAwIDAgNC44NzUtMTEuNjg4Yy4yNzUtLjYzNS44NTEtMS4yIDEuNzE5LTEuMjgxbDkuNDM3LS41OTRjLjk3IDAgMS41OTctLjc4OCAxLjc1LTEuNzUuNDUxLTMuMjUuNjA4LTUuMzUxLjYyNS04LjYyNS0uMDE3LTMuMjc0LS4xNzQtNS4zNzYtLjYyNS04LjYyNS0uMTUzLS45NjItLjc4LTEuNzUtMS43NS0xLjc1bC05LjQzNy0uNTk0YTIuMDcgMi4wNyAwIDAgMS0xLjU5NC0xYy0uMDA2LS4wMjItLjAyNi0uMDQtLjAzMS0uMDYyLTEuMTMtNC4zNzYtMy4xNTItOC4zNjUtNS4xMjUtMTIuMzEzbC0uMDYzLS4xMjVjLS4yNjctLjUzNS0uMDA1LTEuMjczLjQ2OS0xLjg0M2w2LjI1LTcuMDk0Yy42ODUtLjY4Ni41NzItMS42OCAwLTIuNDY5LTEuOTc5LTIuNjE3LTMuMzU0LTQuMjM1LTUuNjU2LTYuNTYzLTIuMzI4LTIuMzAyLTMuOTQ2LTMuNjc3LTYuNTYzLTUuNjU2LS43ODktLjU3Mi0xLjc4My0uNjg1LTIuNDY5IDBsLTcuMDkzIDYuMjVhMi4wOCAyLjA4IDAgMCAxLTIuMTg4LjMxM0E0Ny45IDQ3LjkgMCAwIDAtNzEuNSAxNy42NTZjLS4wMjItLjAwNi0uMDQtLjAyNC0uMDYyLS4wMzEtLjcxMy0uMjI4LTEuMzgtLjg1Ny0xLjQ3LTEuODEzbC0uNTkzLTkuNDM3YzAtLjk3LS43ODgtMS41OTctMS43NS0xLjc1LTMuMjUtLjQ1MS01LjM1MS0uNjA4LTguNjI1LS42MjVtMCA0NGM4LjgzMiAwIDE2IDcuMTY4IDE2IDE2cy03LjE2OCAxNi0xNiAxNi0xNi03LjE2OC0xNi0xNiA3LjE2OC0xNiAxNi0xNiIgZmlsbD0idXJsKCNqKSIvPjxwYXRoIHRyYW5zZm9ybT0idHJhbnNsYXRlKDAgMTQzLjUpIiBvcGFjaXR5PSIuOTU5IiBmaWx0ZXI9InVybCgjbikiIGNsaXAtcGF0aD0idXJsKCNtKSIgZD0iTTc2LjkwNi03MC4wNjJDNzMuOTk0LTY2LjA5IDY5LjMtNjMuNSA2NC02My41YTE1Ljk2IDE1Ljk2IDAgMCAxLTEyLjIxOS01LjY1NmwtMzEuNSAzMC43NWMuNDEuNDM0LjgwNy44NjQgMS4yODIgMS4zNDQgMi4zMjcgMi4zMDIgMy45NDUgMy42NzcgNi41NjIgNS42NTYuNzg5LjU3MiAxLjc4My42ODUgMi40NjkgMGw3LjA5My02LjI1YTIuMSAyLjEgMCAwIDEgMi4zNzYtLjI1bC4wOTMtLjA5NEE0Ny44IDQ3LjggMCAwIDAgNTEuNS0zMy4zMTJ2LjE1NmMuNzM2LjIwOSAxLjQ0Ljg1OSAxLjUzMSAxLjg0NGwuNTk0IDkuNDM3YzAgLjk3Ljc4OCAxLjU5NyAxLjc1IDEuNzUgMy4yNS40NTEgNS4zNTEuNjA4IDguNjI1LjYyNSAzLjI3NC0uMDE3IDUuMzc2LS4xNzQgOC42MjUtLjYyNS45NjItLjE1MyAxLjc1LS43OCAxLjc1LTEuNzVsLjU5NC05LjQzN2EyLjExIDIuMTEgMCAwIDEgMS41MzEtMS44NDR2LS4xNTZBNDcuOCA0Ny44IDAgMCAwIDg3Ljg0NC0zOGwuMDk0LjA5NGEyLjEgMi4xIDAgMCAxIDIuMzc0LjI1bDcuMDk0IDYuMjVjLjY4Ni42ODUgMS42OC41NzIgMi40NjkgMCAyLjYxNy0xLjk3OSA0LjIzNS0zLjM1NCA2LjU2My01LjY1Ni40ODUtLjQ5MS44OTUtLjkzMiAxLjMxMi0xLjM3NXoiIGZpbGw9InVybCgjbCkiLz48cGF0aCB0cmFuc2Zvcm09InJvdGF0ZSgxODAgNjMuOTk0IC03Ljc0NikiIG9wYWNpdHk9Ii45OTIiIGZpbHRlcj0idXJsKCNuKSIgY2xpcC1wYXRoPSJ1cmwoI20pIiBkPSJNNzYuOTA2LTcwLjA2MkM3My45OTQtNjYuMDkgNjkuMy02My41IDY0LTYzLjVhMTUuOTYgMTUuOTYgMCAwIDEtMTIuMjE5LTUuNjU2bC0zMS41IDMwLjc1Yy40MS40MzQuODA3Ljg2NCAxLjI4MiAxLjM0NCAyLjMyNyAyLjMwMiAzLjk0NSAzLjY3NyA2LjU2MiA1LjY1Ni43ODkuNTcyIDEuNzgzLjY4NSAyLjQ2OSAwbDcuMDkzLTYuMjVhMi4xIDIuMSAwIDAgMSAyLjM3Ni0uMjVsLjA5My0uMDk0QTQ3LjggNDcuOCAwIDAgMCA1MS41LTMzLjMxMnYuMTU2Yy43MzYuMjA5IDEuNDQuODU5IDEuNTMxIDEuODQ0bC41OTQgOS40MzdjMCAuOTcuNzg4IDEuNTk3IDEuNzUgMS43NSAzLjI1LjQ1MSA1LjM1MS42MDggOC42MjUuNjI1IDMuMjc0LS4wMTcgNS4zNzYtLjE3NCA4LjYyNS0uNjI1Ljk2Mi0uMTUzIDEuNzUtLjc4IDEuNzUtMS43NWwuNTk0LTkuNDM3YTIuMTEgMi4xMSAwIDAgMSAxLjUzMS0xLjg0NHYtLjE1NkE0Ny44IDQ3LjggMCAwIDAgODcuODQ0LTM4bC4wOTQuMDk0YTIuMSAyLjEgMCAwIDEgMi4zNzQuMjVsNy4wOTQgNi4yNWMuNjg2LjY4NSAxLjY4LjU3MiAyLjQ2OSAwIDIuNjE3LTEuOTc5IDQuMjM1LTMuMzU0IDYuNTYzLTUuNjU2LjQ4NS0uNDkxLjg5NS0uOTMyIDEuMzEyLTEuMzc1eiIgZmlsbD0idXJsKCNvKSIvPjxwYXRoIG9wYWNpdHk9Ii43MzIiIGQ9Ik02NCA0Yy0zLjI3NC4wMTctNS4zNzYuMTc0LTguNjI1LjYyNS0uOTYyLjE1My0xLjc1Ljc4LTEuNzUgMS43NWwtLjU5NCA5LjQzOGMtLjA4OC45NTUtLjc1NiAxLjU4NC0xLjQ2OCAxLjgxMi0uMDIyLjAwNy0uMDQxLjAyNS0uMDYzLjAzMWE0Ny45IDQ3LjkgMCAwIDAtMTEuNjI1IDQuODEzIDIuMDggMi4wOCAwIDAgMS0yLjE4Ny0uMzEzbC03LjA5NC02LjI1Yy0uNjg2LS42ODUtMS42OC0uNTcyLTIuNDY5IDAtMi42MTcgMS45NzktNC4yMzUgMy4zNTQtNi41NjIgNS42NTYtMi4zMDMgMi4zMjgtMy42NzggMy45NDYtNS42NTcgNi41NjMtLjU3Mi43ODktLjY4NSAxLjc4MyAwIDIuNDY5bDYuMjUgNy4wOTNjLjQ3NC41NzEuNzM2IDEuMzEuNDY5IDEuODQ0bC0uMDYyLjEyNWE0Ny42IDQ3LjYgMCAwIDAtNS4xMjUgMTIuMzEzYy0uMDEyLjAyLS4wMi4wNDItLjAzMi4wNjJhMi4wNyAyLjA3IDAgMCAxLTEuNTkzIDFsLTkuNDM4LjU5NGMtLjk3IDAtMS41OTcuNzg4LTEuNzUgMS43NUM0LjE3NCA1OC42MjUgNC4wMTcgNjAuNzI2IDQgNjRjLjAxNyAzLjI3NC4xNzQgNS4zNzYuNjI1IDguNjI1LjE1My45NjIuNzggMS43NSAxLjc1IDEuNzVsOS40MzguNTk0Yy44NjcuMDggMS40NDMuNjQ2IDEuNzE4IDEuMjgxYTQ3LjYgNDcuNiAwIDAgMCA0Ljg3NSAxMS42ODggMi4xIDIuMSAwIDAgMS0uMjUgMi4zNzRsLTYuMjUgNy4wOTRjLS42ODUuNjg2LS41NzIgMS42OCAwIDIuNDY5IDEuOTc5IDIuNjE3IDMuMzU0IDQuMjM1IDUuNjU3IDYuNTYzIDIuMzI3IDIuMzAyIDMuOTQ1IDMuNjc3IDYuNTYyIDUuNjU2Ljc4OS41NzIgMS43ODMuNjg1IDIuNDY5IDBsNy4wOTQtNi4yNWEyLjEgMi4xIDAgMCAxIDIuMzc1LS4yNWwuMDkzLS4wOTRhNDcuOCA0Ny44IDAgMCAwIDExLjM0NCA0LjY4OHYuMTU2Yy43MzYuMjA5IDEuNDQuODU5IDEuNTMxIDEuODQ0bC41OTQgOS40MzdjMCAuOTcuNzg4IDEuNTk3IDEuNzUgMS43NSAzLjI1LjQ1MSA1LjM1MS42MDggOC42MjUuNjI1IDMuMjc0LS4wMTcgNS4zNzYtLjE3NCA4LjYyNS0uNjI1Ljk2Mi0uMTUzIDEuNzUtLjc4IDEuNzUtMS43NWwuNTk0LTkuNDM4YTIuMTEgMi4xMSAwIDAgMSAxLjUzMS0xLjg0M3YtLjE1NmE0Ny44IDQ3LjggMCAwIDAgMTEuMzQ0LTQuNjg4bC4wOTQuMDk0YTIuMSAyLjEgMCAwIDEgMi4zNzUuMjVsNy4wOTMgNi4yNWMuNjg2LjY4NSAxLjY4LjU3MiAyLjQ2OSAwIDIuNjE3LTEuOTc5IDQuMjM1LTMuMzU0IDYuNTYyLTUuNjU2IDIuMzAzLTIuMzI4IDMuNjc4LTMuOTQ2IDUuNjU3LTYuNTYzLjU3Mi0uNzg5LjY4NS0xLjc4MyAwLTIuNDY5bC02LjI1LTcuMDk0YTIuMSAyLjEgMCAwIDEtLjI1LTIuMzc0IDQ3LjYgNDcuNiAwIDAgMCA0Ljg3NS0xMS42ODhjLjI3NS0uNjM1Ljg1MS0xLjIgMS43MTgtMS4yODFsOS40MzgtLjU5NGMuOTcgMCAxLjU5Ny0uNzg4IDEuNzUtMS43NS40NTEtMy4yNS42MDgtNS4zNTEuNjI1LTguNjI1LS4wMTctMy4yNzQtLjE3NC01LjM3Ni0uNjI1LTguNjI1LS4xNTMtLjk2Mi0uNzgtMS43NS0xLjc1LTEuNzVsLTkuNDM4LS41OTRhMi4wNyAyLjA3IDAgMCAxLTEuNTkzLTFjLS4wMDYtLjAyMi0uMDI2LS4wNC0uMDMyLS4wNjItMS4xMy00LjM3Ni0zLjE1LTguMzY1LTUuMTI1LTEyLjMxM2wtLjA2Mi0uMTI1Yy0uMjY3LS41MzUtLjAwNS0xLjI3My40NjktMS44NDNsNi4yNS03LjA5NGMuNjg1LS42ODYuNTcyLTEuNjggMC0yLjQ2OS0xLjk3OS0yLjYxNy0zLjM1NC00LjIzNS01LjY1Ny02LjU2My0yLjMyNy0yLjMwMi0zLjk0NS0zLjY3Ny02LjU2Mi01LjY1Ni0uNzg5LS41NzItMS43ODMtLjY4NS0yLjQ2OSAwbC03LjA5MyA2LjI1YTIuMDggMi4wOCAwIDAgMS0yLjE4OC4zMTNBNDcuOSA0Ny45IDAgMCAwIDc2LjUgMTcuNjU2Yy0uMDIyLS4wMDYtLjA0LS4wMjQtLjA2Mi0uMDMxLS43MTMtLjIyOC0xLjM4LS44NTctMS40Ny0xLjgxM2wtLjU5My05LjQzN2MwLS45Ny0uNzg4LTEuNTk3LTEuNzUtMS43NUM2OS4zNzUgNC4xNzQgNjcuMjc0IDQuMDE3IDY0IDRtMCA0NGM4LjgzMiAwIDE2IDcuMTY4IDE2IDE2cy03LjE2OCAxNi0xNiAxNi0xNi03LjE2OC0xNi0xNiA3LjE2OC0xNiAxNi0xNiIgZmlsbD0idXJsKCNwKSIvPjxwYXRoIHN0eWxlPSJmaWxsOm5vbmU7c3Ryb2tlLWxpbmVjYXA6cm91bmQ7c3Ryb2tlLWxpbmVqb2luOnJvdW5kO3N0cm9rZS1kYXNob2Zmc2V0OjEuMDg3ODtzdHJva2U6dXJsKCNxKTtmaWx0ZXI6dXJsKCNmaWx0ZXI1MTYyKSIgZD0iTTYzLjk3IDMuOTY3Yy0zLjI3NS4wMTctNS4zNzYuMTc0LTguNjI2LjYyNS0uOTYyLjE1My0xLjc1Ljc4LTEuNzUgMS43NWwtLjU5MyA5LjQzN2MtLjA4OS45NTYtLjc1NyAxLjU4NS0xLjQ3IDEuODEzLS4wMjEuMDA3LS4wNC4wMjUtLjA2Mi4wMzFhNDcuOSA0Ny45IDAgMCAwLTExLjYyNSA0LjgxMyAyLjA4IDIuMDggMCAwIDEtMi4xODctLjMxM2wtNy4wOTQtNi4yNWMtLjY4NS0uNjg1LTEuNjgtLjU3Mi0yLjQ2OSAwLTIuNjE2IDEuOTc5LTQuMjM1IDMuMzU0LTYuNTYyIDUuNjU2LTIuMzAzIDIuMzI4LTMuNjc4IDMuOTQ2LTUuNjU2IDYuNTYzLS41NzIuNzg4LS42ODYgMS43ODMgMCAyLjQ2OWw2LjI1IDcuMDkzYy40NzMuNTcuNzM2IDEuMzEuNDY4IDEuODQ0bC0uMDYyLjEyNWE0Ny42IDQ3LjYgMCAwIDAtNS4xMjUgMTIuMzEzYy0uMDEyLjAyLS4wMTkuMDQyLS4wMzEuMDYyYTIuMDcgMi4wNyAwIDAgMS0xLjU5NCAxbC05LjQzOC41OTRjLS45NyAwLTEuNTk2Ljc4OC0xLjc1IDEuNzUtLjQ1IDMuMjUtLjYwNyA1LjM1MS0uNjI1IDguNjI1LjAxOCAzLjI3NC4xNzQgNS4zNzYuNjI1IDguNjI1LjE1NC45NjIuNzggMS43NSAxLjc1IDEuNzVsOS40MzguNTk0Yy44NjcuMDggMS40NDMuNjQ2IDEuNzE5IDEuMjhhNDcuNiA0Ny42IDAgMCAwIDQuODc1IDExLjY4OCAyLjEgMi4xIDAgMCAxLS4yNSAyLjM3NWwtNi4yNSA3LjA5NGMtLjY4Ni42ODYtLjU3MiAxLjY4IDAgMi40NjkgMS45NzggMi42MTYgMy4zNTMgNC4yMzUgNS42NTYgNi41NjIgMi4zMjcgMi4zMDMgMy45NDYgMy42NzggNi41NjIgNS42NTcuNzg5LjU3MiAxLjc4NC42ODUgMi40NyAwbDcuMDkzLTYuMjVhMi4xIDIuMSAwIDAgMSAyLjM3NS0uMjVsLjA5NC0uMDk0YTQ3LjggNDcuOCAwIDAgMCAxMS4zNDMgNC42ODd2LjE1N2MuNzM3LjIwOSAxLjQ0Ljg1OSAxLjUzMiAxLjg0M2wuNTkzIDkuNDM4YzAgLjk3Ljc4OCAxLjU5NyAxLjc1IDEuNzUgMy4yNS40NTEgNS4zNTEuNjA4IDguNjI1LjYyNSAzLjI3NC0uMDE3IDUuMzc2LS4xNzQgOC42MjUtLjYyNS45NjItLjE1MyAxLjc1LS43OCAxLjc1LTEuNzVsLjU5NC05LjQzOGEyLjExIDIuMTEgMCAwIDEgMS41MzEtMS44NDN2LS4xNTdhNDcuOCA0Ny44IDAgMCAwIDExLjM0NC00LjY4N2wuMDk0LjA5NGEyLjEgMi4xIDAgMCAxIDIuMzc1LjI1bDcuMDk0IDYuMjVjLjY4NS42ODUgMS42OC41NzIgMi40NjggMCAyLjYxNy0xLjk3OSA0LjIzNi0zLjM1NCA2LjU2My01LjY1NyAyLjMwMy0yLjMyNyAzLjY3Ny0zLjk0NiA1LjY1Ni02LjU2Mi41NzItLjc4OS42ODYtMS43ODMgMC0yLjQ2OWwtNi4yNS03LjA5NGEyLjEgMi4xIDAgMCAxLS4yNS0yLjM3NSA0Ny42IDQ3LjYgMCAwIDAgNC44NzUtMTEuNjg3Yy4yNzUtLjYzNS44NTEtMS4yMDEgMS43MTktMS4yODFsOS40MzctLjU5NGMuOTcgMCAxLjU5Ny0uNzg4IDEuNzUtMS43NS40NTEtMy4yNS42MDgtNS4zNTEuNjI1LTguNjI1LS4wMTctMy4yNzQtLjE3NC01LjM3Ni0uNjI1LTguNjI1LS4xNTMtLjk2Mi0uNzgtMS43NS0xLjc1LTEuNzVsLTkuNDM3LS41OTRhMi4wNyAyLjA3IDAgMCAxLTEuNTk0LTFjLS4wMDYtLjAyMi0uMDI2LS4wNC0uMDMxLS4wNjItMS4xMy00LjM3Ny0zLjE1MS04LjM2NS01LjEyNS0xMi4zMTNsLS4wNjMtLjEyNWMtLjI2Ny0uNTM1LS4wMDUtMS4yNzMuNDctMS44NDRsNi4yNS03LjA5M2MuNjg1LS42ODYuNTcxLTEuNjggMC0yLjQ3LTEuOTgtMi42MTYtMy4zNTQtNC4yMzQtNS42NTctNi41NjItMi4zMjctMi4zMDItMy45NDYtMy42NzctNi41NjMtNS42NTYtLjc4OC0uNTcyLTEuNzgzLS42ODUtMi40NjggMGwtNy4wOTQgNi4yNWEyLjA4IDIuMDggMCAwIDEtMi4xODguMzEzIDQ3LjkgNDcuOSAwIDAgMC0xMS42MjUtNC44MTNjLS4wMjItLjAwNi0uMDQtLjAyNC0uMDYyLS4wMzEtLjcxMi0uMjI4LTEuMzgtLjg1Ny0xLjQ2OS0xLjgxM2wtLjU5NC05LjQzN2MwLS45Ny0uNzg4LTEuNTk3LTEuNzUtMS43NS0zLjI0OS0uNDUxLTUuMzUtLjYwOC04LjYyNS0uNjI1em0wIDQ0YzguODMxIDAgMTYgNy4xNjggMTYgMTZzLTcuMTY5IDE2LTE2IDE2LTE2LTcuMTY4LTE2LTE2IDcuMTY3LTE2IDE2LTE2Ii8+PHBhdGggb3BhY2l0eT0iLjczMiIgZD0iTTE1LjQ4NiAyOC45MzhjLS4xNi41ODUtLjA1NiAxLjE5NC40MDcgMS42NTZsNi4yNSA3LjA5M2MuMjEzLjI1OC4zNy41NTMuNDY4Ljg0NC4yNjgtLjUzNS4wMDUtMS4yNzMtLjQ2OC0xLjg0M2wtNi4yNS03LjA5NGExLjYgMS42IDAgMCAxLS40MDctLjY1N3ptOTYuOTcgMGExLjUgMS41IDAgMCAxLS4zNzYuNjU2bC02LjI1IDcuMDkzYy0uNDY2LjU2Mi0uNzE1IDEuMjgtLjQ2OSAxLjgxMy4xLS4yOC4yNjQtLjU2Ni40Ny0uODEzbDYuMjUtNy4wOTNjLjQ2MS0uNDYyLjUzNC0xLjA3MS4zNzQtMS42NTd6TTYzLjk4NSA0N2MtOC44MzIgMC0xNiA3LjE2OC0xNiAxNiAwIC4xNy4wMjYuMzMxLjAzMi41LjI2OC04LjU5NyA3LjMwNi0xNS41IDE1Ljk2OC0xNS41czE1LjcgNi45MDMgMTUuOTcgMTUuNWMuMDA0LS4xNjkuMDMtLjMzLjAzLS41IDAtOC44MzItNy4xNjgtMTYtMTYtMTZtNjAgMTYuNWMtLjAzIDIuOTgtLjE5OCA1LjA1NC0uNjI1IDguMTI1LS4xNTMuOTYyLS43OCAxLjc1LTEuNzUgMS43NWwtOS40MzcuNTk0Yy0uODY4LjA4LTEuNDQ0LjY0Ni0xLjcxOSAxLjI4MWE0Ny42IDQ3LjYgMCAwIDEtNC44NzUgMTEuNjg4IDIuMSAyLjEgMCAwIDAtLjIxOSAxLjVjLjA0NC0uMTg0LjEzLS4zNDIuMjItLjVhNDcuNiA0Ny42IDAgMCAwIDQuODc0LTExLjY4OGMuMjc1LS42MzUuODUxLTEuMiAxLjcxOS0xLjI4MWw5LjQzNy0uNTk0Yy45NyAwIDEuNTk3LS43ODggMS43NS0xLjc1LjQ1MS0zLjI1LjYwOC01LjM1MS42MjUtOC42MjUgMC0uMTguMDAyLS4zMjcgMC0uNU00LjAxOCA2NS4yODFjLjA1IDIuNTcuMjA2IDQuNTUxLjU5MyA3LjM0NC4xNTQuOTYyLjc4IDEuNzUgMS43NSAxLjc1bDkuNDM4LjU5NGMuODY3LjA4IDEuNDQzLjY0NiAxLjcxOSAxLjI4MWE0Ny42IDQ3LjYgMCAwIDAgNC44NzUgMTEuNjg4Yy4wODguMTU4LjE0My4zMTYuMTg3LjVhMi4xIDIuMSAwIDAgMC0uMTg3LTEuNSA0Ny42IDQ3LjYgMCAwIDEtNC44NzUtMTEuNjg4Yy0uMjc2LS42MzUtLjg1Mi0xLjItMS43Mi0xLjI4MWwtOS40MzctLjU5NGMtLjk3IDAtMS41OTYtLjc4OC0xLjc1LTEuNzUtLjMzOC0yLjQzNy0uNTItNC4yMi0uNTkzLTYuMzQ0bTExLjQ2OCAzMi43ODFjLS4xOC41ODUgMCAxLjI1MS40MDcgMS44MTMgMS45NzggMi42MTcgMy4zNTMgNC4yMzUgNS42NTYgNi41NjMgMi4zMjcgMi4zMDIgMy45NDYgMy42NzcgNi41NjIgNS42NTYuNzg5LjU3MiAxLjc4NC42ODUgMi40NyAwbDcuMDkzLTYuMjVhMi4xIDIuMSAwIDAgMSAyLjM3NS0uMjVsLjA5NC0uMDk0YTQ3LjggNDcuOCAwIDAgMCAxMS4zNDMgNC42ODh2LjE1NmMuNzM3LjIwOSAxLjQ0Ljg1OSAxLjUzMiAxLjg0NGwuNTkzIDkuNDM3YzAgLjk3Ljc4OCAxLjU5NyAxLjc1IDEuNzUgMy4yNS40NTEgNS4zNTEuNjA4IDguNjI1LjYyNSAzLjI3NC0uMDE3IDUuMzc2LS4xNzQgOC42MjUtLjYyNS45NjItLjE1MyAxLjc1LS43OCAxLjc1LTEuNzVsLjU5NC05LjQzOGEyLjExIDIuMTEgMCAwIDEgMS41MzEtMS44NDN2LS4xNTZBNDcuOCA0Ny44IDAgMCAwIDg3LjgzIDEwNS41bC4wOTQuMDk0YTIuMSAyLjEgMCAwIDEgMi4zNzUuMjVsNy4wOTQgNi4yNWMuNjg1LjY4NSAxLjY4LjU3MiAyLjQ2OCAwIDIuNjE3LTEuOTc5IDQuMjM2LTMuMzU0IDYuNTYzLTUuNjU2IDIuMzAzLTIuMzI4IDMuNjc4LTMuOTQ2IDUuNjU2LTYuNTYzLjQwNy0uNTYyLjU1Ni0xLjIyOC4zNzUtMS44MTNhMi41IDIuNSAwIDAgMS0uMzc1LjgxM2MtMS45NzggMi42MTctMy4zNTMgNC4yMzUtNS42NTYgNi41NjMtMi4zMjcgMi4zMDItMy45NDYgMy42NzctNi41NjMgNS42NTYtLjc4OC41NzItMS43ODMuNjg1LTIuNDY4IDBsLTcuMDk0LTYuMjVhMi4xIDIuMSAwIDAgMC0yLjM3NS0uMjVsLS4wOTQtLjA5NGE0Ny44IDQ3LjggMCAwIDEtMTEuMzQ0IDQuNjg4di4xNTZhMi4xMSAyLjExIDAgMCAwLTEuNTMgMS44NDRsLS41OTUgOS40MzdjMCAuOTctLjc4OCAxLjU5Ny0xLjc1IDEuNzUtMy4yNDkuNDUxLTUuMzUuNjA4LTguNjI1LjYyNS0zLjI3NC0uMDE3LTUuMzc1LS4xNzQtOC42MjUtLjYyNS0uOTYyLS4xNTMtMS43NS0uNzgtMS43NS0xLjc1bC0uNTkzLTkuNDM4YTIuMTEgMi4xMSAwIDAgMC0xLjUzMi0xLjg0M3YtLjE1NmE0Ny44IDQ3LjggMCAwIDEtMTEuMzQzLTQuNjg4bC0uMDk0LjA5NGEyLjEgMi4xIDAgMCAwLTIuMzc1LjI1bC03LjA5NCA2LjI1Yy0uNjg1LjY4NS0xLjY4LjU3Mi0yLjQ2OSAwLTIuNjE2LTEuOTc5LTQuMjM1LTMuMzU0LTYuNTYyLTUuNjU2LTIuMzAzLTIuMzI4LTMuNjc4LTMuOTQ2LTUuNjU2LTYuNTYzYTIuNSAyLjUgMCAwIDEtLjQwNy0uODEzIiBmaWxsPSIjZmZmIi8+PHBhdGggZmlsdGVyPSJ1cmwoI3MpIiBkPSJNNTUuMjM0IDQuMTFjNC41Ni0uNDM3IDEyLjE5My0uNjA0IDE2Ljk0NC0uMDM2IDEuOTA2LjIyNyAyLjUzOCAyLjg3NyAyLjE0NSA3LjM2My0uMDI4LjMxMS0uNTcyLTUuOTYtMi41MDMtNi4wNC00LjY3LS4xOTUtMTEuNjgtLjQ2Ny0xNi4yMjggMC0xLjA0Ni4xMDctMS45NjIgMi4xOTItMS45NjYgMS44NTgtLjAxOC0xLjM5NC0uMjQ3LTIuOTY4IDEuNjA4LTMuMTQ2eiIgZmlsbC1ydWxlPSJldmVub2RkIiBmaWxsPSJ1cmwoI3IpIi8+PHBhdGggdHJhbnNmb3JtPSJyb3RhdGUoMjUuODQ2IDU2LjIwNiA2Ljk2MikiIGQ9Ik01NS45NjIgNi44NWExLjI5IDIuNDUyIDAgMSAxLTIuNTc4IDAgMS4yOSAyLjQ1MiAwIDEgMSAyLjU3OCAwIiBmaWxsPSJ1cmwoI3QpIi8+PHBhdGggdHJhbnNmb3JtPSJzY2FsZSgtMSAxKXJvdGF0ZSgyNS44NDYgLTcuNjY3IC0yNzEuNDExKSIgZD0iTTU1Ljk2MiA2Ljg1YTEuMjkgMi40NTIgMCAxIDEtMi41NzggMCAxLjI5IDIuNDUyIDAgMSAxIDIuNTc4IDAiIGZpbGw9InVybCgjdCkiLz48cGF0aCBmaWx0ZXI9InVybCgjdikiIGQ9Ik01MS4zNjIgMTguM2MtNC4wNDggMS4yMzgtNy44NiAyLjcxLTExLjUyNiA0LjktLjk5Ny4zNjQtMS41OTcuMDA0LTIuNDI3LS41MDVsLTYuODc1LTYuMTE0Yy0uNDMzLS4zNTgtMS41MDItLjkyNC0yLjMyNS0uMjAyLTQuNTcyIDMuOTYtOC4yMTYgOC4yMDUtMTIuMjM0IDEyLjMzNWwxLjQ5LS43ODljMy41NzItMy40NTggNy4wMTEtNi45NjEgMTAuODQ1LTEwLjMzMy41Ny0uNDcyIDEuNDIyLS4yOSAxLjkyLjIwM2w2LjU4NSA1LjgwM2MxLjAwNi45ODQgMi4yOSAxLjM4IDMuNjI3LjkxNyAzLjY0NS0yLjM1IDcuNDcyLTMuOTggMTEuNDk4LTUuNTY3Ljg0NS0uMzQ5IDEuNTE2LTEuNyAxLjQwMy0yLjgwOC0uMTE4LjcxNS0xIDEuODQ3LTEuOTgxIDIuMTYiIGZpbGwtcnVsZT0iZXZlbm9kZCIgZmlsbD0idXJsKCN1KSIvPjxwYXRoIHRyYW5zZm9ybT0ibWF0cml4KC4yMDM0MyAxLjIzNjkzIC0uOTc5MDkgLjI1NyAyNC41MDggLTUyLjQ3KSIgZD0iTTU1Ljk2MiA2Ljg1YTEuMjkgMi40NTIgMCAxIDEtMi41NzggMCAxLjI5IDIuNDUyIDAgMSAxIDIuNTc4IDAiIGZpbGw9InVybCgjdCkiLz48cGF0aCB0cmFuc2Zvcm09Im1hdHJpeCgtMSAwIDAgMSAxMjguMzc2IDApIiBmaWx0ZXI9InVybCgjdikiIGQ9Ik01MS4zNjIgMTguM2MtNC4wNDggMS4yMzgtNy44NiAyLjcxLTExLjUyNiA0LjktLjk5Ny4zNjQtMS4xNjgtLjQ5Ny0xLjk5OC0xLjAwNmwtNi44NzUtNi4xMTNjLS40MzMtLjM1OC0xLjkzLS40MjQtMi43NTQuMjk4LTUuMjE0IDMuMzE4LTguNzE0IDcuNzA3LTEyLjIzNCAxMi4zMzVsMS40OS0uNzg5YzIuNDgzLTIuODY0IDYuMDA0LTYuNDEyIDEwLjg0NS0xMC4zMzMuNTctLjQ3MiAxLjg1MS0uNzkgMi4zNS0uMjk4bDYuNTg0IDUuODA0YzEuMDA2Ljk4NCAxLjg2MSAxLjg4IDMuMTk4IDEuNDE3IDMuNjQ1LTIuMzUgNy40NzItMy45OCAxMS40OTgtNS41NjcuODQ1LS4zNDkgMS41MTYtMS43IDEuNDAzLTIuODA4LS4xMTguNzE1LTEgMS44NDctMS45ODEgMi4xNiIgZmlsbC1ydWxlPSJldmVub2RkIiBmaWxsPSJ1cmwoI3cpIi8+PHBhdGggdHJhbnNmb3JtPSJtYXRyaXgoLS4yMDM0MyAxLjIzNjkzIC45NzkwOSAuMjU3IDEwMy44NjcgLTUyLjQ3KSIgZD0iTTU1Ljk2MiA2Ljg1YTEuMjkgMi40NTIgMCAxIDEtMi41NzggMCAxLjI5IDIuNDUyIDAgMSAxIDIuNTc4IDAiIGZpbGw9InVybCgjdCkiLz48cGF0aCB0cmFuc2Zvcm09Im1hdHJpeCgtLjk5NDY5IC0uNDgxMjMgLS4zNTc0NSAuOTYxMyAxNjguMzI2IDQ5Ljc4KSIgb3BhY2l0eT0iLjMyIiBmaWx0ZXI9InVybCgjeSkiIGQ9Ik01NS45NjIgNi44NWExLjI5IDIuNDUyIDAgMSAxLTIuNTc4IDAgMS4yOSAyLjQ1MiAwIDEgMSAyLjU3OCAwIiBmaWxsPSJ1cmwoI3gpIi8+PHBhdGggdHJhbnNmb3JtPSJtYXRyaXgoLjk5NDY5IC0uNDgxMjMgLjM1NzQ1IC45NjEzIC0zOS45NDQgNTAuMDgyKSIgb3BhY2l0eT0iLjMyIiBmaWx0ZXI9InVybCgjeSkiIGQ9Ik01NS45NjIgNi44NWExLjI5IDIuNDUyIDAgMSAxLTIuNTc4IDAgMS4yOSAyLjQ1MiAwIDEgMSAyLjU3OCAwIiBmaWxsPSJ1cmwoI3gpIi8+PHBhdGggZmlsdGVyPSJ1cmwoI0EpIiBkPSJNMTA5LjcyIDUwLjE5N2MuMTkuNzM2LS4wMjQgMi4xMTUuNDcyIDMuMjQ0LjI5LjY2MS42OTUgMS4wODYgMS4yMjcgMS4xMDYgNC43ODcuMTc4IDYuOTQ3LjEzNCAxMC4xMS4zNTMuNDcyLjAzMyAxLjA1OS4zMjYgMS4yODkgMS4yNDEuNDE1IDEuNjQ4LjM1IDQuOTg4Ljc4NCA2LjU3Ljc0IDIuODM1LjI5Ni00LjgwNi0uMDUtNy4xMDMtLjI4My0xLjU4Ni0uOTctMi4yOC0xLjgyLTIuMzI1LTMuMzcyLS4xNzgtNi43NDgtLjA2NS0xMC40MTQtLjIwMi0uMjU0LjAzMy0uNTMtLjI2NC0uNzgyLS42OTQtLjQ1LS43NjgtLjQxNy0xLjg0OS0uODE1LTIuMTl6IiBmaWxsLXJ1bGU9ImV2ZW5vZGQiIGZpbGw9InVybCgjeikiLz48cGF0aCB0cmFuc2Zvcm09Im1hdHJpeCgtMSAwIDAgMSAxMjguMjcgLjcpIiBmaWx0ZXI9InVybCgjQSkiIGQ9Ik0xMDkuNzIgNDkuNjk3Yy4xOS43MzYtLjAyNCAyLjExNS40NzIgMy4yNDQuMjkuNjYxLjY5NSAxLjA4NiAxLjIyNyAxLjEwNiA0Ljc4Ny4xNzggNi45NDcuNjM0IDEwLjExLjg1My40NzIuMDMzIDEuMDU5LjMyNiAxLjI4OSAxLjI0MS40MTUgMS42NDguMzUgNC45ODguNzg0IDYuNTcuNzQgMi44MzUuMjk2LTQuODA2LS4wNS03LjEwMy0uMjgzLTEuNTg2LS45Ny0yLjI4LTEuODItMi4zMjUtMy4zNzItLjE3OC02Ljc0OC0uNTY1LTEwLjQxNC0uNzAyLS4yNTQuMDMzLS41My0uMjY0LS43ODItLjY5NC0uNDUtLjc2OC0uNDE3LTEuODQ5LS44MTUtMi4xOXoiIGZpbGwtcnVsZT0iZXZlbm9kZCIgZmlsbD0idXJsKCN6KSIvPjxwYXRoIG9wYWNpdHk9Ii44NzQiIGZpbHRlcj0idXJsKCNDKSIgZD0iTTQ4LjMxIDY0LjE5MWMtLjAwNS4xNTktLjA0Ny4zMTItLjA0Ny40NzIgMCA4LjY3NiA3LjA3NyAxNS43MDcgMTUuNzU0IDE1LjcwN3MxNS43MDctNy4wMyAxNS43MDctMTUuNzA3YzAtLjE2LS4wNDMtLjMxMy0uMDQ4LS40NzItLjIyOCA4LjQ3OC03LjEyNyAxNS4yODItMTUuNjYgMTUuMjgyLTguNTMyIDAtMTUuNDc4LTYuODA0LTE1LjcwNi0xNS4yODIiIGZpbGw9InVybCgjQikiLz48cGF0aCBvcGFjaXR5PSIuODc0IiBmaWx0ZXI9InVybCgjRCkiIGQ9Ik03OS42NzYgNjMuOTljLjAwNS0uMTU4LjA0OC0uMzExLjA0OC0uNDcxIDAtOC42NzctNy4wNzgtMTUuNzA3LTE1Ljc1NC0xNS43MDdzLTE1LjcwNyA3LjAzLTE1LjcwNyAxNS43MDdjMCAuMTYuMDQyLjMxMy4wNDcuNDcxLjIyOC04LjQ3NyA3LjEyNy0xNS4yODIgMTUuNjYtMTUuMjgyIDguNTMyIDAgMTUuNDc4IDYuODA1IDE1LjcwNiAxNS4yODIiIGZpbGw9IiM1NjU2NTYiLz48cGF0aCBvcGFjaXR5PSIuODc0IiBmaWx0ZXI9InVybCgjRSkiIGQ9Ik04MC4yNjQgNjQuMjk3Yy4wMDUtLjE2NS4wNS0uMzIzLjA1LS40OSAwLTkuMDAxLTcuMzQzLTE2LjI5NS0xNi4zNDUtMTYuMjk1cy0xNi4yOTYgNy4yOTQtMTYuMjk2IDE2LjI5NmMwIC4xNjYuMDQ0LjMyNC4wNDkuNDkuMjM3LTguNzk3IDcuMzk0LTE2LjI3MSAxNi4yNDctMTYuMjcxczE2LjA1OSA3LjQ3NCAxNi4yOTUgMTYuMjciIGZpbGw9IiNmZmYiLz48cGF0aCBvcGFjaXR5PSIuMzQ2IiBmaWx0ZXI9InVybCgjQykiIGQ9Ik00OC4zMSA2NC4xOTFjLS4wMDUuMTU5LS4wNDcuMzEyLS4wNDcuNDcyIDAgOC42NzYgNy4wNzcgMTYuNzA3IDE1Ljc1NCAxNi43MDdzMTUuNzA3LTguMDMgMTUuNzA3LTE2LjcwN2MwLS4xNi0uMDQzLS4zMTMtLjA0OC0uNDcyLS4yMjggOC40NzgtNy4xMjcgMTUuMjgyLTE1LjY2IDE1LjI4Mi04LjUzMiAwLTE1LjQ3OC02LjgwNC0xNS43MDYtMTUuMjgyIiBmaWxsPSJ1cmwoI0IpIi8+PHBhdGggZmlsdGVyPSJ1cmwoI0YpIiBkPSJNMTEyLjMxNSA5Ny45MDJjLjA1Mi41NTctLjEyNyAxLjAzOC0uMzU4IDEuNWwtMy4zNiA0LjM2MiAzLjA3NC00LjM2MWMtLjEzNC0uNTE2LS4xOS0xLjA3My0uNS0xLjUwMS0xLjc4Ni0yLjIwMS00LjA2LTQuMzItNS4wNzYtNi42NXoiIGZpbGwtcnVsZT0iZXZlbm9kZCIgZmlsbD0iI2ZmZiIvPjxwYXRoIHRyYW5zZm9ybT0ibWF0cml4KC0xIDAgMCAxIDEyOC40MiAwKSIgZmlsdGVyPSJ1cmwoI0YpIiBkPSJNMTEyLjMxNSA5Ny45MDJjLjA1Mi41NTctLjEyNyAxLjAzOC0uMzU4IDEuNWwtMy4zNiA0LjM2MiAzLjA3NC00LjM2MWMtLjEzNC0uNTE2LS4xOS0xLjA3My0uNS0xLjUwMS0xLjc4Ni0yLjIwMS00LjA2LTQuMzItNS4wNzYtNi42NXoiIGZpbGwtcnVsZT0iZXZlbm9kZCIgZmlsbD0iI2ZmZiIvPjxwYXRoIHRyYW5zZm9ybT0idHJhbnNsYXRlKC0xMTkuMTU3IC0uMTMpc2NhbGUoLjU4OTIxKSIgc3R5bGU9ImZpbGw6bm9uZTtzdHJva2Utd2lkdGg6MS42OTcxNzg7c3Ryb2tlLWxpbmVjYXA6cm91bmQ7c3Ryb2tlLWxpbmVqb2luOnJvdW5kO3N0cm9rZS1kYXNob2Zmc2V0OjEuMDg3ODtzdHJva2U6dXJsKCNHKTtmaWx0ZXI6dXJsKCNmaWx0ZXIzMzEwKSIgZD0iTTM2Ni4wNDIgMTA4Ljg0YTU1LjE5MiA1NS4xOTIgMCAxIDEtMTEwLjM4NCAwIDU1LjE5MiA1NS4xOTIgMCAxIDEgMTEwLjM4NCAwIi8+PHBhdGggZmlsdGVyPSJ1cmwoI0gpIiBkPSJNNjQgMzEuNDY5Yy0xNy45NTEgMC0zMi41MzEgMTQuNTgtMzIuNTMxIDMyLjUzMVM0Ni4wNDkgOTYuNTMxIDY0IDk2LjUzMSA5Ni41MzEgODEuOTUxIDk2LjUzMSA2NCA4MS45NTEgMzEuNDY5IDY0IDMxLjQ2OW0wIDE3LjkzN2M4LjA1IDAgMTQuNTk0IDYuNTQzIDE0LjU5NCAxNC41OTRTNzIuMDUgNzguNTk0IDY0IDc4LjU5NCA0OS40MDYgNzIuMDUgNDkuNDA2IDY0IDU1Ljk1IDQ5LjQwNiA2NCA0OS40MDYiIGZpbGwtb3BhY2l0eT0iLjA3OCIgZmlsbD0iIzM0MzQzNCIvPjxwYXRoIHRyYW5zZm9ybT0idHJhbnNsYXRlKC0yNi42ODIgLTE4LjQ5NClzY2FsZSgxLjQxNDQyKSIgZD0iTTg2LjU0NyA1OC4yMzdhMjIuNDQ1IDIyLjQ0NSAwIDEgMS00NC44OTEgMCAyMi40NDUgMjIuNDQ1IDAgMSAxIDQ0Ljg5IDB6IiBmaWxsPSJ1cmwoI0kpIi8+PHBhdGggdHJhbnNmb3JtPSJ0cmFuc2xhdGUoLTI2LjY4MiAtMTguNDk0KXNjYWxlKDEuNDE0NDIpIiBkPSJNODYuNTQ3IDU4LjIzN2EyMi40NDUgMjIuNDQ1IDAgMSAxLTQ0Ljg5MSAwIDIyLjQ0NSAyMi40NDUgMCAxIDEgNDQuODkgMHoiIGZpbGw9InVybCgjSikiLz48cGF0aCB0cmFuc2Zvcm09InRyYW5zbGF0ZSgtMjYuNjgyIC0xOC40OTQpc2NhbGUoMS40MTQ0MikiIGZpbHRlcj0idXJsKCNNKSIgY2xpcC1wYXRoPSJ1cmwoI0wpIiBkPSJNODYuNTQ3IDU4LjIzN2EyMi40NDUgMjIuNDQ1IDAgMSAxLTQ0Ljg5MSAwIDIyLjQ0NSAyMi40NDUgMCAxIDEgNDQuODkgMHoiIGZpbGw9InVybCgjSykiLz48ZyBmaWxsLXJ1bGU9ImV2ZW5vZGQiPjxwYXRoIHRyYW5zZm9ybT0idHJhbnNsYXRlKC0xMTQuOTU1IDE2LjE3MilzY2FsZSguNjg3OTYpIiBkPSJNMjQ5LjcwNCA0NS4yOTVBMTAuMSAxMC4xIDAgMCAwIDI0MCA1NS4zOTNWODAuNjRhMTAuMSAxMC4xIDAgMCAwIDE0LjU5NSA4Ljk5M2wyNS4yNDYtMTIuNjIyYTEwLjEgMTAuMSAwIDAgMCAwLTE3Ljk4OEwyNTQuNTk1IDQ2LjRhMTAuMSAxMC4xIDAgMCAwLTQuODkxLTEuMTA0eiIgZmlsbD0idXJsKCNOKSIvPjxwYXRoIHRyYW5zZm9ybT0idHJhbnNsYXRlKC04MC44NzMgMTYuMTcyKXNjYWxlKC42ODc5NikiIGZpbHRlcj0idXJsKCNQKSIgY2xpcC1wYXRoPSJ1cmwoI08pIiBkPSJNMjAwLjE1NiA0My44OGMtNS40MjIuMjEzLTkuNjkgNC42NjgtOS42ODcgMTAuMDk0djNjLS4wMDQtNS40MjYgNC4yNjUtOS44ODEgOS42ODctMTAuMDk0IDEuNjk4LS4wNDkgMy4zOTUuMzIgNC45MDYgMS4wOTRsMjUuMjUgMTIuNjI1YTEwLjEgMTAuMSAwIDAgMSA1LjM3NSA3LjVjLjA3NS0uNDkzLjEyNS0uOTkyLjEyNS0xLjUgMC0zLjc5NC0yLjEyLTcuMjc0LTUuNS05bC0yNS4yNS0xMi42MjVhMTAuMTUgMTAuMTUgMCAwIDAtNC45MDYtMS4wOTQiIGZpbGwtb3BhY2l0eT0iLjc3OCIgZmlsbD0iIzEyMTIxMiIvPjxwYXRoIHRyYW5zZm9ybT0idHJhbnNsYXRlKC00Ny4zMjggMTYuMTcyKXNjYWxlKC42ODc5NikiIGZpbHRlcj0idXJsKCNSKSIgY2xpcC1wYXRoPSJ1cmwoI1EpIiBkPSJNMTg2LjkzOCA2Ny41MzRhMTAuMSAxMC4xIDAgMCAxLTUuMzc1IDcuNWwtMjUuMjUgMTIuNjI1YTEwLjA3IDEwLjA3IDAgMCAxLTkuNzgyLS40MzcgMTAuMTMgMTAuMTMgMCAwIDEtNC44MTItOC41NjN2M2ExMC4xMyAxMC4xMyAwIDAgMCA0LjgxMiA4LjU2MyAxMC4wNyAxMC4wNyAwIDAgMCA5Ljc4MS40MzdsMjUuMjUtMTIuNjI1YTEwLjEgMTAuMSAwIDAgMCA1LjUtOWMwLS41MDgtLjA1LTEuMDA2LS4xMjUtMS41eiIgZmlsbD0iI2ZmZiIvPjxwYXRoIGQ9Ik0zMi42NjQgNjIuNTU5YzE1LjEyNyA0LjcxMiA0Ni44MDEgNC4xMDMgNjIuNDQ4LTQuNDg4bC0uMDI5LS45MTVjLTE2LjIyNCA4LjUwMi00Ny4xODYgMTAuMDg5LTYyLjQyIDUuNDAzeiIgZmlsbD0idXJsKCNTKSIvPjwvZz48L3N2Zz4=;" vertex="1" parent="cWRUJiYnSkY0RR1LLJY6-22">
          <mxGeometry x="130" y="40" width="30" height="30" as="geometry" />
        </mxCell>
        <mxCell id="cWRUJiYnSkY0RR1LLJY6-24" value="Simulation Inputs" style="rounded=1;whiteSpace=wrap;html=1;fillColor=#ffe6cc;strokeColor=#d79b00;" vertex="1" parent="WIyWlLk6GJQsqaUBKTNV-1">
          <mxGeometry x="-80" y="240" width="140" height="40" as="geometry" />
        </mxCell>
        <mxCell id="cWRUJiYnSkY0RR1LLJY6-25" value="Simulation Outputs" style="rounded=1;whiteSpace=wrap;html=1;fillColor=#dae8fc;strokeColor=#6c8ebf;" vertex="1" parent="WIyWlLk6GJQsqaUBKTNV-1">
          <mxGeometry x="-80" y="340" width="140" height="40" as="geometry" />
        </mxCell>
        <mxCell id="cWRUJiYnSkY0RR1LLJY6-26" value="Simulation Execution" style="rounded=1;whiteSpace=wrap;html=1;fillColor=#d5e8d4;strokeColor=#82b366;" vertex="1" parent="WIyWlLk6GJQsqaUBKTNV-1">
          <mxGeometry x="-80" y="290" width="140" height="40" as="geometry" />
        </mxCell>
        <mxCell id="cWRUJiYnSkY0RR1LLJY6-28" value="&lt;font style=&quot;font-size: 32px;&quot;&gt;&lt;font style=&quot;&quot;&gt;Qucs-S Simulation Process: A&amp;nbsp;&lt;/font&gt;&lt;span style=&quot;background-color: transparent; color: light-dark(rgb(0, 0, 0), rgb(255, 255, 255));&quot;&gt;Simplified Overview&lt;/span&gt;&lt;/font&gt;" style="text;strokeColor=none;align=center;fillColor=none;html=1;verticalAlign=middle;whiteSpace=wrap;rounded=0;fontSize=20;fontStyle=5" vertex="1" parent="WIyWlLk6GJQsqaUBKTNV-1">
          <mxGeometry x="-90" y="20" width="917" height="60" as="geometry" />
        </mxCell>
      </root>
    </mxGraphModel>
  </diagram>
</mxfile>
